<?xml version="1.0" encoding="UTF-8" standalone="no"?>
<!-- Created with Inkscape (http://www.inkscape.org/) -->

<svg
   width="316.81619mm"
   height="276.48465mm"
   viewBox="0 0 316.8162 276.48465"
   version="1.1"
   id="svg560"
   inkscape:version="1.2.2 (b0a8486541, 2022-12-01)"
   sodipodi:docname="offline-diagram.svg"
   xml:space="preserve"
   xmlns:inkscape="http://www.inkscape.org/namespaces/inkscape"
   xmlns:sodipodi="http://sodipodi.sourceforge.net/DTD/sodipodi-0.dtd"
   xmlns="http://www.w3.org/2000/svg"
   xmlns:svg="http://www.w3.org/2000/svg"><sodipodi:namedview
     id="namedview562"
     pagecolor="#ffffff"
     bordercolor="#111111"
     borderopacity="1"
     inkscape:showpageshadow="0"
     inkscape:pageopacity="0"
     inkscape:pagecheckerboard="1"
     inkscape:deskcolor="#d1d1d1"
     inkscape:document-units="mm"
     showgrid="false"
     inkscape:zoom="2"
     inkscape:cx="963.25"
     inkscape:cy="543.75"
     inkscape:window-width="1900"
     inkscape:window-height="1030"
     inkscape:window-x="0"
     inkscape:window-y="0"
     inkscape:window-maximized="1"
     inkscape:current-layer="layer1" /><defs
     id="defs557"><clipPath
       id="a"><path
         d="M 148.09,239 H 651.9 V 600 H 148.09 Z"
         id="path2442" /></clipPath><marker
       style="overflow:visible"
       id="Arrow4"
       refX="0"
       refY="0"
       orient="auto-start-reverse"
       inkscape:stockid="Arrow4"
       markerWidth="5"
       markerHeight="6"
       viewBox="0 0 5 6"
       inkscape:isstock="true"
       inkscape:collect="always"
       preserveAspectRatio="xMidYMid"><path
         style="fill:context-stroke;fill-rule:evenodd;stroke:none"
         d="m 1,0 -3,3 h -2 l 3,-3 -3,-3 h 2 z"
         id="path1741" /></marker><marker
       style="overflow:visible"
       id="Arrow4-8"
       refX="0"
       refY="0"
       orient="auto-start-reverse"
       inkscape:stockid="Arrow4"
       markerWidth="5"
       markerHeight="6"
       viewBox="0 0 5 6"
       inkscape:isstock="true"
       inkscape:collect="always"
       preserveAspectRatio="xMidYMid"><path
         style="fill:context-stroke;fill-rule:evenodd;stroke:none"
         d="m 1,0 -3,3 h -2 l 3,-3 -3,-3 h 2 z"
         id="path1741-6" /></marker><marker
       style="overflow:visible"
       id="Arrow4-84"
       refX="0"
       refY="0"
       orient="auto-start-reverse"
       inkscape:stockid="Arrow4"
       markerWidth="5"
       markerHeight="6"
       viewBox="0 0 5 6"
       inkscape:isstock="true"
       inkscape:collect="always"
       preserveAspectRatio="xMidYMid"><path
         style="fill:context-stroke;fill-rule:evenodd;stroke:none"
         d="m 1,0 -3,3 h -2 l 3,-3 -3,-3 h 2 z"
         id="path1741-3" /></marker><marker
       style="overflow:visible"
       id="Arrow4-84-4"
       refX="0"
       refY="0"
       orient="auto-start-reverse"
       inkscape:stockid="Arrow4"
       markerWidth="5"
       markerHeight="6"
       viewBox="0 0 5 6"
       inkscape:isstock="true"
       inkscape:collect="always"
       preserveAspectRatio="xMidYMid"><path
         style="fill:context-stroke;fill-rule:evenodd;stroke:none"
         d="m 1,0 -3,3 h -2 l 3,-3 -3,-3 h 2 z"
         id="path1741-3-9" /></marker><marker
       style="overflow:visible"
       id="Arrow4-84-4-0"
       refX="0"
       refY="0"
       orient="auto-start-reverse"
       inkscape:stockid="Arrow4"
       markerWidth="5"
       markerHeight="6"
       viewBox="0 0 5 6"
       inkscape:isstock="true"
       inkscape:collect="always"
       preserveAspectRatio="xMidYMid"><path
         style="fill:context-stroke;fill-rule:evenodd;stroke:none"
         d="m 1,0 -3,3 h -2 l 3,-3 -3,-3 h 2 z"
         id="path1741-3-9-6" /></marker><marker
       style="overflow:visible"
       id="Arrow4-84-4-0-9"
       refX="0"
       refY="0"
       orient="auto-start-reverse"
       inkscape:stockid="Arrow4"
       markerWidth="5"
       markerHeight="6"
       viewBox="0 0 5 6"
       inkscape:isstock="true"
       inkscape:collect="always"
       preserveAspectRatio="xMidYMid"><path
         style="fill:context-stroke;fill-rule:evenodd;stroke:none"
         d="m 1,0 -3,3 h -2 l 3,-3 -3,-3 h 2 z"
         id="path1741-3-9-6-2" /></marker><marker
       style="overflow:visible"
       id="Arrow4-84-4-0-6"
       refX="0"
       refY="0"
       orient="auto-start-reverse"
       inkscape:stockid="Arrow4"
       markerWidth="5"
       markerHeight="6"
       viewBox="0 0 5 6"
       inkscape:isstock="true"
       inkscape:collect="always"
       preserveAspectRatio="xMidYMid"><path
         style="fill:context-stroke;fill-rule:evenodd;stroke:none"
         d="m 1,0 -3,3 h -2 l 3,-3 -3,-3 h 2 z"
         id="path1741-3-9-6-4" /></marker><marker
       style="overflow:visible"
       id="Arrow4-84-4-0-9-5"
       refX="0"
       refY="0"
       orient="auto-start-reverse"
       inkscape:stockid="Arrow4"
       markerWidth="5"
       markerHeight="6"
       viewBox="0 0 5 6"
       inkscape:isstock="true"
       inkscape:collect="always"
       preserveAspectRatio="xMidYMid"><path
         style="fill:context-stroke;fill-rule:evenodd;stroke:none"
         d="m 1,0 -3,3 h -2 l 3,-3 -3,-3 h 2 z"
         id="path1741-3-9-6-2-0" /></marker><marker
       style="overflow:visible"
       id="Arrow4-84-4-0-6-4"
       refX="0"
       refY="0"
       orient="auto-start-reverse"
       inkscape:stockid="Arrow4"
       markerWidth="5"
       markerHeight="6"
       viewBox="0 0 5 6"
       inkscape:isstock="true"
       inkscape:collect="always"
       preserveAspectRatio="xMidYMid"><path
         style="fill:context-stroke;fill-rule:evenodd;stroke:none"
         d="m 1,0 -3,3 h -2 l 3,-3 -3,-3 h 2 z"
         id="path1741-3-9-6-4-8" /></marker><marker
       style="overflow:visible"
       id="Arrow4-84-4-0-9-5-7"
       refX="0"
       refY="0"
       orient="auto-start-reverse"
       inkscape:stockid="Arrow4"
       markerWidth="5"
       markerHeight="6"
       viewBox="0 0 5 6"
       inkscape:isstock="true"
       inkscape:collect="always"
       preserveAspectRatio="xMidYMid"><path
         style="fill:context-stroke;fill-rule:evenodd;stroke:none"
         d="m 1,0 -3,3 h -2 l 3,-3 -3,-3 h 2 z"
         id="path1741-3-9-6-2-0-2" /></marker><marker
       style="overflow:visible"
       id="Arrow4-84-4-0-6-4-7"
       refX="0"
       refY="0"
       orient="auto-start-reverse"
       inkscape:stockid="Arrow4"
       markerWidth="5"
       markerHeight="6"
       viewBox="0 0 5 6"
       inkscape:isstock="true"
       inkscape:collect="always"
       preserveAspectRatio="xMidYMid"><path
         style="fill:context-stroke;fill-rule:evenodd;stroke:none"
         d="m 1,0 -3,3 h -2 l 3,-3 -3,-3 h 2 z"
         id="path1741-3-9-6-4-8-2" /></marker><marker
       style="overflow:visible"
       id="Arrow4-84-1"
       refX="0"
       refY="0"
       orient="auto-start-reverse"
       inkscape:stockid="Arrow4"
       markerWidth="5"
       markerHeight="6"
       viewBox="0 0 5 6"
       inkscape:isstock="true"
       inkscape:collect="always"
       preserveAspectRatio="xMidYMid"><path
         style="fill:context-stroke;fill-rule:evenodd;stroke:none"
         d="m 1,0 -3,3 h -2 l 3,-3 -3,-3 h 2 z"
         id="path1741-3-0" /></marker><marker
       style="overflow:visible"
       id="Arrow4-84-4-0-1"
       refX="0"
       refY="0"
       orient="auto-start-reverse"
       inkscape:stockid="Arrow4"
       markerWidth="5"
       markerHeight="6"
       viewBox="0 0 5 6"
       inkscape:isstock="true"
       inkscape:collect="always"
       preserveAspectRatio="xMidYMid"><path
         style="fill:context-stroke;fill-rule:evenodd;stroke:none"
         d="m 1,0 -3,3 h -2 l 3,-3 -3,-3 h 2 z"
         id="path1741-3-9-6-5" /></marker><marker
       style="overflow:visible"
       id="Arrow4-84-9"
       refX="0"
       refY="0"
       orient="auto-start-reverse"
       inkscape:stockid="Arrow4"
       markerWidth="5"
       markerHeight="6"
       viewBox="0 0 5 6"
       inkscape:isstock="true"
       inkscape:collect="always"
       preserveAspectRatio="xMidYMid"><path
         style="fill:context-stroke;fill-rule:evenodd;stroke:none"
         d="m 1,0 -3,3 h -2 l 3,-3 -3,-3 h 2 z"
         id="path1741-3-09" /></marker><marker
       style="overflow:visible"
       id="Arrow4-7"
       refX="0"
       refY="0"
       orient="auto-start-reverse"
       inkscape:stockid="Arrow4"
       markerWidth="5"
       markerHeight="6"
       viewBox="0 0 5 6"
       inkscape:isstock="true"
       inkscape:collect="always"
       preserveAspectRatio="xMidYMid"><path
         style="fill:context-stroke;fill-rule:evenodd;stroke:none"
         d="m 1,0 -3,3 h -2 l 3,-3 -3,-3 h 2 z"
         id="path1741-7" /></marker><marker
       style="overflow:visible"
       id="Arrow4-84-4-7"
       refX="0"
       refY="0"
       orient="auto-start-reverse"
       inkscape:stockid="Arrow4"
       markerWidth="5"
       markerHeight="6"
       viewBox="0 0 5 6"
       inkscape:isstock="true"
       inkscape:collect="always"
       preserveAspectRatio="xMidYMid"><path
         style="fill:context-stroke;fill-rule:evenodd;stroke:none"
         d="m 1,0 -3,3 h -2 l 3,-3 -3,-3 h 2 z"
         id="path1741-3-9-67" /></marker><marker
       style="overflow:visible"
       id="Arrow4-84-4-0-65"
       refX="0"
       refY="0"
       orient="auto-start-reverse"
       inkscape:stockid="Arrow4"
       markerWidth="5"
       markerHeight="6"
       viewBox="0 0 5 6"
       inkscape:isstock="true"
       inkscape:collect="always"
       preserveAspectRatio="xMidYMid"><path
         style="fill:context-stroke;fill-rule:evenodd;stroke:none"
         d="m 1,0 -3,3 h -2 l 3,-3 -3,-3 h 2 z"
         id="path1741-3-9-6-6" /></marker><marker
       style="overflow:visible"
       id="Arrow4-84-4-9"
       refX="0"
       refY="0"
       orient="auto-start-reverse"
       inkscape:stockid="Arrow4"
       markerWidth="5"
       markerHeight="6"
       viewBox="0 0 5 6"
       inkscape:isstock="true"
       inkscape:collect="always"
       preserveAspectRatio="xMidYMid"><path
         style="fill:context-stroke;fill-rule:evenodd;stroke:none"
         d="m 1,0 -3,3 h -2 l 3,-3 -3,-3 h 2 z"
         id="path1741-3-9-4" /></marker><marker
       style="overflow:visible"
       id="Arrow4-84-1-2"
       refX="0"
       refY="0"
       orient="auto-start-reverse"
       inkscape:stockid="Arrow4"
       markerWidth="5"
       markerHeight="6"
       viewBox="0 0 5 6"
       inkscape:isstock="true"
       inkscape:collect="always"
       preserveAspectRatio="xMidYMid"><path
         style="fill:context-stroke;fill-rule:evenodd;stroke:none"
         d="m 1,0 -3,3 h -2 l 3,-3 -3,-3 h 2 z"
         id="path1741-3-0-9" /></marker></defs><g
     inkscape:label="Layer 1"
     inkscape:groupmode="layer"
     id="layer1"
     transform="translate(187.70169,31.340188)"><g
       id="g1289"
       transform="translate(-97.959377,96.547667)"><g
         style="fill:#000000"
         id="g14898"
         transform="matrix(0.05296403,0,0,0.05296403,75.572,-28.569975)"><path
           d="m 533.32,433.33 c -17.426,-26.484 -40.285,-47.457 -65.891,-60.82 22.41,-19.105 36.648,-47.527 36.648,-79.215 0.004,-57.391 -46.688,-104.08 -104.07,-104.08 -57.391,0 -104.08,46.691 -104.08,104.08 0,31.688 14.242,60.109 36.648,79.215 -25.605,13.367 -48.465,34.336 -65.891,60.82 -23.004,34.957 -35.664,77.051 -36.602,121.73 -0.0977,4.7031 2.3203,9.1055 6.3438,11.543 47.691,28.906 104.26,44.191 163.58,44.191 59.32,0 115.89,-15.277 163.58,-44.191 4.0234,-2.4375 6.4414,-6.8359 6.3438,-11.543 -0.94141,-44.672 -13.598,-86.766 -36.605,-121.72 z M 322.27,293.29 c 0,-42.859 34.871,-77.73 77.73,-77.73 42.859,0 77.73,34.871 77.73,77.73 0,40.18 -30.645,73.336 -69.789,77.328 h -0.0195 c -0.61719,0.0625 -1.2344,0.11719 -1.8555,0.16406 -0.14062,0.0117 -0.27734,0.0195 -0.41797,0.0312 -0.50781,0.0352 -1.0234,0.0742 -1.5391,0.0977 -0.30469,0.0156 -0.61328,0.0273 -0.92188,0.0351 -0.37109,0.0156 -0.73438,0.0312 -1.1055,0.043 -0.69531,0.0156 -1.3945,0.0312 -2.0938,0.0312 h -0.004 c -0.69531,0 -1.3945,-0.0117 -2.082,-0.0312 -0.375,-0.0117 -0.74609,-0.0273 -1.1172,-0.043 -0.30469,-0.0117 -0.60547,-0.0195 -0.91016,-0.0351 -0.51562,-0.0274 -1.0352,-0.0625 -1.543,-0.0977 -0.13281,-0.0117 -0.27344,-0.0195 -0.40625,-0.0312 -0.62109,-0.0469 -1.2422,-0.10156 -1.8672,-0.16406 h -0.0117 c -39.133,-3.9883 -69.777,-37.148 -69.777,-77.328 z M 400,584.44 c -51.766,0 -101.12,-12.59 -143.28,-36.48 4.1484,-73.969 45.496,-137.81 102.95,-158.7 12.758,5.3828 26.305,8.1055 40.336,8.1055 h 0.0117 c 14.031,0 27.57,-2.7266 40.332,-8.1055 57.449,20.887 98.797,84.727 102.95,158.7 -42.164,23.891 -91.527,36.48 -143.29,36.48 z"
           id="path14889" /></g><text
         xml:space="preserve"
         style="font-style:normal;font-variant:normal;font-weight:normal;font-stretch:normal;font-size:6.35px;font-family:serif;-inkscape-font-specification:serif;fill:none;stroke:#000000;stroke-width:0.705556"
         x="91.096252"
         y="15.148924"
         id="text290-6-0"><tspan
           sodipodi:role="line"
           id="tspan288-7-6"
           style="fill:#000000;fill-opacity:1;stroke:none;stroke-width:0.705556"
           x="91.096252"
           y="15.148924">User</tspan></text></g><g
       id="g11727"><g
         style="fill:#000000"
         id="g1091"
         transform="matrix(0.0652725,0,0,0.0652725,45.496308,63.344574)"><path
           d="m 396.18,432.3 c 22.477,-13.551 37.59,-38.129 37.59,-66.234 0,-3.6367 -0.25391,-7.3125 -0.76562,-10.934 -0.21094,-1.4922 -0.78125,-2.8281 -1.5469,-4.0156 9.4492,-10.258 14.926,-22.648 14.926,-36.137 0,-0.64062 -0.25,-1.1953 -0.36328,-1.8008 0.0977,-0.65234 0.22656,-1.293 0.22656,-1.9727 0,-46.273 -40.305,-83.914 -89.844,-83.914 -49.539,0 -89.844,37.645 -89.844,83.914 0,0.6875 0.125,1.3359 0.22266,1.9961 -0.10938,0.59766 -0.35938,1.1484 -0.35938,1.7773 0,13.406 5.4219,25.727 14.77,35.949 -0.62891,1.0781 -1.1016,2.2695 -1.3008,3.5781 -0.57031,3.7852 -0.85547,7.6719 -0.85547,11.559 0,28.105 15.113,52.684 37.586,66.234 -74.516,12.852 -128.09,59.793 -128.09,101.12 0,54.766 80.68,62.312 167.87,62.312 87.19,0 167.87,-7.5469 167.87,-62.312 -0.004,-41.328 -53.574,-88.27 -128.09,-101.12 z m -74.246,19.641 19.844,19.844 -7.3906,6.668 -19.031,-25.348 c 2.1641,-0.4375 4.375,-0.79297 6.5781,-1.1641 z m 34.465,-3 c 2.9141,0 5.7773,0.1875 8.6562,0.3125 l -8.6562,8.6562 -8.6562,-8.6562 c 2.8789,-0.12109 5.7422,-0.3125 8.6562,-0.3125 z m 41.043,4.1602 -19.031,25.348 -7.3906,-6.668 19.844,-19.844 c 2.1992,0.375 4.4102,0.73047 6.5781,1.1641 z m -109.31,119.87 c -4.7969,-0.45312 -9.4609,-0.99219 -14.016,-1.6055 l -0.004,-105.44 c 4.5078,-1.957 9.1914,-3.7656 14.016,-5.4414 z m 20.152,-95.723 16.609,22.121 c 1.7031,2.2617 4.2695,3.7031 7.0898,3.9805 0.32422,0.0312 0.64844,0.043 0.96875,0.043 2.4844,0 4.8906,-0.91406 6.75,-2.5977 l 16.699,-15.07 16.699,15.07 c 1.8594,1.6836 4.2656,2.6016 6.75,2.6016 0.32031,0 0.64453,-0.0156 0.96875,-0.043 2.8203,-0.27734 5.3867,-1.7188 7.0898,-3.9805 l 16.609,-22.121 v 53.676 h -96.234 z m 116.39,-16.77 c 4.8242,1.6719 9.5117,3.4805 14.016,5.4414 v 105.45 c -4.5547,0.60937 -9.2227,1.1523 -14.016,1.6016 z m -133.31,-129.7 c 14.602,3.6445 35.652,5.4648 63.492,5.4648 29.457,0 51.582,-1.9023 66.727,-5.7109 -10.141,16.746 -35.863,29.012 -65.18,29.012 -29.176,0.004 -54.797,-12.145 -65.039,-28.766 z m 65.039,-81.078 c 18.707,12.961 26.852,44.145 28.203,65.555 -8.2852,0.51562 -18.055,0.83984 -29.746,0.83984 -10.359,0 -19.121,-0.27734 -26.664,-0.71875 1.3242,-21.418 9.4648,-52.691 28.207,-65.676 z m 69.586,58.039 c -2.3945,1.3164 -8.2852,3.6797 -21.332,5.5586 -1.1719,-16.859 -5.9727,-40.426 -17.582,-59.273 22.004,9.9219 37.523,30.109 38.914,53.715 z m -100.26,-53.715 c -11.648,18.914 -16.445,42.578 -17.594,59.449 -13.176,-1.8789 -18.992,-4.2969 -21.328,-5.6211 1.3477,-23.656 16.883,-43.891 38.922,-53.828 z m -26.539,112.05 c 0,-0.25781 0.0547,-0.50391 0.0547,-0.75781 15.441,9.0234 35.262,14.387 57.16,14.387 21.898,0 41.723,-5.3672 57.168,-14.391 0.004,0.25781 0.0547,0.50391 0.0547,0.76562 0,31.547 -25.668,57.215 -57.219,57.215 -31.551,-0.004 -57.219,-25.672 -57.219,-57.219 z m -90.5,167.35 c 0,-19.293 17.594,-40.734 45.273,-57.199 v 91.625 c -26.781,-5.9766 -45.273,-16.379 -45.273,-34.426 z m 99.598,41.027 v -23.371 h 96.234 v 23.371 c -15.859,0.85156 -32.246,1.1328 -48.117,1.1328 -15.871,0 -32.262,-0.28125 -48.117,-1.1328 z m 150.55,-6.5977 v -91.629 c 27.684,16.465 45.277,37.906 45.277,57.199 0.004,18.047 -18.492,28.449 -45.277,34.43 z m 127.48,-341.03 c -2.4805,-2.3555 -6.0039,-3.1836 -9.3398,-2.3828 -3.3203,0.80078 -6.043,3.3359 -7.1719,6.5586 l -9.6836,27.621 -7.9883,1.5039 -5.3008,-6.1641 9.7578,-27.824 c 1.125,-3.2266 0.54688,-6.8047 -1.543,-9.5039 -2.0898,-2.6953 -5.3594,-4.1758 -8.8164,-3.8711 -20.379,1.7266 -37.918,15.305 -44.672,34.594 -6.6211,18.875 -1.8398,39.496 11.844,53.48 l -16.715,47.641 c -19.414,2.3672 -36.039,15.488 -42.652,34.367 -6.7695,19.285 -1.5547,40.848 13.277,54.922 2.4844,2.3516 6.0078,3.1836 9.3398,2.3828 3.3203,-0.80078 6.0469,-3.3359 7.1719,-6.5586 l 9.6914,-27.617 7.9883,-1.5039 5.3008,6.1641 -9.7617,27.816 c -1.125,3.2227 -0.55078,6.8047 1.543,9.5039 1.9141,2.4766 4.8672,3.9062 7.9648,3.9062 0.28125,0 0.56641,-0.0117 0.85156,-0.0352 20.375,-1.7266 37.914,-15.301 44.684,-34.594 6.6172,-18.879 1.832,-39.508 -11.852,-53.48 l 16.715,-47.641 c 19.41,-2.3672 36.039,-15.488 42.656,-34.367 6.7695,-19.289 1.5547,-40.844 -13.289,-54.918 z m -5.7305,48.25 c -4.5664,13.02 -17.133,21.832 -30.695,21.258 -4.1953,0.0937 -8.2852,2.6289 -9.7305,6.7422 l -21.176,60.375 c -1.4414,4.1133 -0.0742,8.6875 3.3906,11.34 10.957,8.3828 15.258,22.762 10.691,35.773 -1.957,5.5938 -5.3984,10.402 -9.8008,14.027 l 4.4805,-12.777 c 1.1914,-3.3945 0.47656,-7.1719 -1.8711,-9.9023 l -12.879,-14.992 c -1.9336,-2.25 -4.7344,-3.5078 -7.6406,-3.5078 -0.62109,0 -1.2461,0.0586 -1.8633,0.17188 l -19.426,3.6602 c -3.5391,0.66797 -6.4492,3.1719 -7.6406,6.5664 l -4.4883,12.781 c -1.1758,-5.5859 -0.85547,-11.488 1.1055,-17.082 4.5625,-13.012 17.094,-21.871 30.691,-21.254 4.3047,0 8.2852,-2.6289 9.7305,-6.7422 l 21.176,-60.375 c 1.4414,-4.1133 0.0742,-8.6875 -3.3867,-11.336 -10.961,-8.3867 -15.258,-22.766 -10.691,-35.785 1.957,-5.5898 5.3984,-10.402 9.8047,-14.023 l -4.4883,12.781 c -1.1914,3.3984 -0.47656,7.1719 1.8711,9.9023 l 12.879,14.988 c 2.3438,2.7266 5.9648,3.9688 9.5039,3.3359 l 19.426,-3.6562 c 3.5391,-0.66797 6.4492,-3.1719 7.6445,-6.5664 l 4.4805,-12.789 c 1.1875,5.5938 0.86719,11.492 -1.0977,17.086 z"
           id="path1082" /></g><text
         xml:space="preserve"
         style="font-style:normal;font-variant:normal;font-weight:normal;font-stretch:normal;font-size:6.35px;font-family:serif;-inkscape-font-specification:serif;fill:none;stroke:#000000;stroke-width:0.705556"
         x="63.57299"
         y="112.564"
         id="text290-6-6-6-2"><tspan
           sodipodi:role="line"
           id="tspan288-7-7-2-7"
           style="fill:#000000;fill-opacity:1;stroke:none;stroke-width:0.705556"
           x="63.57299"
           y="112.564">Tester</tspan></text></g><g
       id="g2011"
       transform="translate(-318.54442,-59.777366)"><rect
         style="fill:none;stroke:#000000;stroke-width:0.705556"
         id="rect234-3-3-5-0-2-0-2"
         width="72.396271"
         height="26.707844"
         x="131.19551"
         y="182.55846" /><text
         xml:space="preserve"
         style="font-style:normal;font-variant:normal;font-weight:normal;font-stretch:normal;font-size:6.35px;font-family:serif;-inkscape-font-specification:serif;text-align:center;text-anchor:middle;fill:none;stroke:#000000;stroke-width:0.705556"
         x="155.22102"
         y="193.3606"
         id="text290-6-6-6-9-6-2-8"><tspan
           sodipodi:role="line"
           style="text-align:center;text-anchor:middle;fill:#000000;fill-opacity:1;stroke:none;stroke-width:0.705556"
           x="155.22102"
           y="193.3606"
           id="tspan1426-7">Signature</tspan><tspan
           sodipodi:role="line"
           style="text-align:center;text-anchor:middle;fill:#000000;fill-opacity:1;stroke:none;stroke-width:0.705556"
           x="155.22102"
           y="201.2981"
           id="tspan1482">system</tspan></text><g
         style="fill:#000000"
         id="g1991"
         transform="matrix(0.04093779,0,0,0.04093779,172.1478,179.53753)"><g
           id="g1976"><path
             d="m 197.1,618.47 c -5.125,0 -9.9766,-2.3203 -13.195,-6.3086 -3.2148,-3.9922 -4.4531,-9.2227 -3.3672,-14.234 l 40.914,-189.59 v 0.004 c 0.91797,-4.2891 3.4648,-8.0508 7.1055,-10.496 l 177.34,-119.41 c 1.8164,-1.2227 4.2461,-0.98438 5.793,0.5625 l 110.66,110.66 c 1.5469,1.5469 1.7852,3.9766 0.5625,5.793 l -119.36,177.25 c -2.4922,3.7227 -6.3633,6.3008 -10.758,7.1641 l -192.36,38.297 c -1.1016,0.21484 -2.2188,0.31641 -3.3398,0.30859 z m 36.582,-213.02 c -1.6758,1.125 -2.8477,2.8594 -3.2734,4.832 l -40.914,189.59 c -0.5625,2.5703 0.21094,5.2539 2.0586,7.1328 1.8516,1.875 4.5234,2.6875 7.1016,2.1641 l 192.36,-38.297 0.004,-0.004 c 2.0195,-0.39844 3.8008,-1.5859 4.9492,-3.2969 l 117.25,-174.11 -105.34,-105.34 z"
             id="path1964" /><path
             d="m 519.12,397.48 c -1.2148,0 -2.3789,-0.48437 -3.2383,-1.3438 l -110.66,-110.64 c -1.2891,-1.2891 -1.6914,-3.2266 -1.0195,-4.9219 l 24.082,-60.863 v -0.004 c 0.56641,-1.4336 1.8203,-2.4844 3.3281,-2.7969 1.5117,-0.3125 3.0781,0.15234 4.168,1.2461 l 147.43,147.41 c 1.0898,1.0898 1.5586,2.6562 1.2461,4.168 -0.3125,1.5078 -1.3633,2.7617 -2.7969,3.3281 l -60.848,24.082 c -0.53906,0.21484 -1.1094,0.32812 -1.6875,0.32812 z M 413.83,281.14 520.24,387.53 571.822,367.12 434.242,229.55 Z"
             id="path1966" /><path
             d="m 580,373.39 c -1.2148,0 -2.3789,-0.48047 -3.2383,-1.3398 l -147.45,-147.44 c -1.7891,-1.7891 -1.7891,-4.6875 0,-6.4766 l 33.141,-33.137 c 4.6484,-4.6406 12.172,-4.6406 16.82,0 l 137.09,137.09 h 0.004 c 4.6367,4.6484 4.6367,12.176 0,16.824 l -33.164,33.148 c -0.85156,0.85156 -2.0039,1.3281 -3.207,1.3281 z M 439.02,221.38 580,362.34 609.902,332.442 c 1.0625,-1.0703 1.0625,-2.8008 0,-3.8711 l -137.11,-137.09 c -1.0703,-1.0625 -2.7969,-1.0625 -3.8711,0 z"
             id="path1968" /><path
             d="m 319.02,519.2 c -9.7852,-0.004 -19.168,-3.8906 -26.086,-10.809 -6.918,-6.9184 -10.809,-16.301 -10.812,-26.086 -0.003,-9.785 3.8789,-19.172 10.793,-26.094 8.7109,-8.7188 21.199,-12.508 33.289,-10.105 12.086,2.4023 22.18,10.68 26.898,22.066 4.7188,11.383 3.4414,24.375 -3.4023,34.621 -6.8477,10.25 -18.355,16.406 -30.68,16.406 z m -19.613,-56.512 c -5.2031,5.1992 -8.125,12.258 -8.1289,19.613 0,7.3555 2.9219,14.414 8.125,19.617 5.2031,5.1992 12.258,8.1211 19.617,8.1211 9.2656,0 17.918,-4.6289 23.062,-12.332 5.1484,-7.707 6.1055,-17.469 2.5586,-26.031 -3.5469,-8.5586 -11.133,-14.781 -20.219,-16.586 -9.0898,-1.8047 -18.48,1.043 -25.027,7.5977 z"
             id="path1970" /><path
             d="m 189.71,616.2 c -1.8516,-0.004 -3.5156,-1.1211 -4.2227,-2.8281 -0.70703,-1.707 -0.32031,-3.6719 0.98437,-4.9844 l 106.46,-106.47 c 1.7969,-1.7344 4.6562,-1.7109 6.4219,0.0586 1.7656,1.7656 1.7891,4.6211 0.0547,6.418 l -106.46,106.46 c -0.85547,0.85938 -2.0234,1.3438 -3.2344,1.3438 z"
             id="path1972" /><path
             d="m 341.88,464.03 c -1.8516,0 -3.5234,-1.1133 -4.2305,-2.8242 -0.71094,-1.7148 -0.31641,-3.6836 0.99219,-4.9922 l 73.227,-73.227 c 1.7969,-1.7344 4.6523,-1.7109 6.418,0.0547 1.7695,1.7695 1.793,4.625 0.0586,6.4219 l -73.227,73.227 c -0.85938,0.85938 -2.0234,1.3398 -3.2383,1.3398 z"
             id="path1974" /></g></g></g><g
       id="g2052"
       transform="translate(-277.39129,-124.40639)"><text
         xml:space="preserve"
         style="font-style:normal;font-variant:normal;font-weight:normal;font-stretch:normal;font-size:6.35px;font-family:serif;-inkscape-font-specification:serif;text-align:center;text-anchor:middle;fill:none;stroke:#000000;stroke-width:0.705556"
         x="186.4678"
         y="281.78931"
         id="text290-6-6-6-1-9"><tspan
           sodipodi:role="line"
           style="text-align:center;text-anchor:middle;fill:#000000;fill-opacity:1;stroke:none;stroke-width:0.705556"
           x="186.4678"
           y="281.78931"
           id="tspan1526-1">Documentation</tspan></text><g
         style="fill:#000000"
         id="g2046"
         transform="matrix(0.04378032,0,0,0.04378032,168.95993,245.18406)"><path
           d="m 513.55,407.11 c 0.0586,-5.4219 4.4805,-9.7812 9.9062,-9.7656 2.5898,0 5.0742,1.0273 6.9102,2.8555 1.832,1.832 2.8633,4.3164 2.8633,6.9102 -0.0469,5.3984 -4.375,9.7852 -9.7734,9.9023 -5.4258,-0.10547 -9.7969,-4.4766 -9.9062,-9.9023 z m 17.406,24.133 c -5.125,-2.9648 -17.371,-2.7969 -17.996,4.6367 v 51.945 c 1.0898,8.8633 19.84,8.6758 21.133,0 l 0.004,-51.949 c -0.0703,-2.0195 -1.2891,-3.8203 -3.1367,-4.6328 z m 74.406,29.945 h 0.004 c -2.8477,17.969 -11.297,34.574 -24.145,47.453 -12.848,12.879 -29.438,21.371 -47.395,24.262 v 32.406 c -0.008,6.2617 -2.5,12.262 -6.9258,16.691 -4.4258,4.4258 -10.43,6.918 -16.691,6.9219 h -23.617 v 23.617 c -0.008,6.2617 -2.4961,12.266 -6.9219,16.691 -4.4297,4.4258 -10.434,6.918 -16.691,6.9258 h -244.04 c -6.2617,-0.008 -12.262,-2.5 -16.691,-6.9258 -4.4258,-4.4258 -6.918,-10.43 -6.9258,-16.691 v -377.86 c 0.008,-6.2617 2.5,-12.266 6.9258,-16.691 4.4297,-4.4297 10.43,-6.918 16.691,-6.9258 h 23.617 v -23.617 c 0.008,-6.2617 2.4961,-12.262 6.9258,-16.691 4.4258,-4.4258 10.43,-6.918 16.691,-6.9258 h 158.41 c 6.5898,0.0117 12.875,2.7617 17.352,7.5977 l 85.617,92.75 c 4.0312,4.3594 6.2695,10.078 6.2656,16.016 v 81.668 c 22.648,3.707 42.898,16.246 56.312,34.867 13.41,18.621 18.887,41.801 15.227,64.457 z m -166,-269.35 v 66.457 c 0.004,4.3477 3.5273,7.8672 7.8711,7.875 h 60.742 z m 31.488,397.08 H 266.18 c -6.2617,-0.004 -12.266,-2.4961 -16.691,-6.9219 -4.4297,-4.4297 -6.918,-10.43 -6.9258,-16.691 v -338.5 h -23.617 c -4.3438,0.004 -7.8672,3.5273 -7.8711,7.875 v 377.86 c 0.004,4.3477 3.5273,7.8672 7.8711,7.8711 h 244.04 c 4.3438,-0.004 7.8672,-3.5234 7.8711,-7.8711 z m 47.23,-23.617 v -31.254 c -10.395,-0.19141 -20.672,-2.2539 -30.336,-6.0938 l -27.828,11.91 c -3.7812,1.625 -8.0508,1.6992 -11.891,0.21094 -3.8359,-1.4883 -6.9414,-4.4219 -8.6406,-8.1719 -1.7031,-3.7461 -1.8672,-8.0117 -0.46094,-11.883 l 3.5703,-9.8203 h -97.598 c -4.3477,0 -7.8711,-3.5234 -7.8711,-7.8711 0,-4.3477 3.5234,-7.875 7.8711,-7.875 h 102.14 c -9.1797,-14.035 -14.039,-30.457 -13.98,-47.23 h -88.156 c -4.3477,0 -7.8711,-3.5234 -7.8711,-7.8711 0,-4.3477 3.5234,-7.8711 7.8711,-7.8711 h 89.547 c 3.3828,-18.109 12.469,-34.66 25.926,-47.234 h -115.47 c -4.3477,0 -7.8711,-3.5234 -7.8711,-7.8711 0,-4.3477 3.5234,-7.8711 7.8711,-7.8711 h 138.73 c 10.793,-5.0391 22.547,-7.6875 34.457,-7.7539 v -78.84 h -70.848 c -4.8672,-0.0156 -9.6133,-1.5352 -13.582,-4.3555 -3.9687,-2.8203 -6.9648,-6.7969 -8.582,-11.387 h -95.918 c -6.2578,-0.008 -12.262,-2.5 -16.691,-6.9258 -4.4258,-4.4297 -6.9141,-10.43 -6.9219,-16.691 v -7.8711 c 0.008,-6.2617 2.4961,-12.266 6.9219,-16.691 4.4297,-4.4297 10.434,-6.918 16.691,-6.9258 h 94.465 v -31.488 h -157.44 c -4.3477,0.004 -7.8711,3.5273 -7.875,7.8711 v 377.86 c 0.004,4.3438 3.5273,7.8672 7.875,7.8711 h 244.03 c 4.3438,-0.004 7.8672,-3.5273 7.8711,-7.8711 z m -94.465,-338.5 H 329.15 c -4.3438,0.004 -7.8672,3.5273 -7.8711,7.875 v 7.8711 c 0.004,4.3438 3.5273,7.8672 7.8711,7.8711 h 94.465 z m 146.09,170.17 c -17.078,-17.012 -41.629,-24.188 -65.184,-19.047 -23.551,5.1406 -42.879,21.895 -51.316,44.477 -8.4375,22.582 -4.8281,47.902 9.582,67.23 1.5703,2.1992 2.0078,5.0117 1.1758,7.582 l -10.254,28.184 30.91,-13.238 c 2.0156,-0.86328 4.2969,-0.84766 6.2969,0.0469 13.793,6.1133 29.168,7.707 43.918,4.543 16.723,-3.6406 31.562,-13.199 41.793,-26.91 10.234,-13.715 15.168,-30.664 13.895,-47.727 -1.2695,-17.066 -8.6641,-33.094 -20.816,-45.141 z m -248.43,-91.449 v 15.742 c -0.004,4.1758 -1.6641,8.1758 -4.6172,11.129 -2.9492,2.9492 -6.9531,4.6094 -11.125,4.6172 h -15.746 c -4.1719,-0.008 -8.1758,-1.668 -11.125,-4.6172 -2.9531,-2.9531 -4.6133,-6.9531 -4.6172,-11.129 v -15.742 c 0.004,-4.1758 1.6641,-8.1758 4.6172,-11.129 2.9492,-2.9492 6.9531,-4.6094 11.125,-4.6172 h 15.746 c 4.1719,0.008 8.1758,1.668 11.125,4.6172 2.9531,2.9531 4.6133,6.9531 4.6172,11.129 z m -15.734,15.742 -0.008,-15.742 h -15.746 v 15.742 z m 39.352,0 h 149.57 c 4.3477,0 7.875,-3.5234 7.875,-7.8711 0,-4.3477 -3.5273,-7.8711 -7.875,-7.8711 h -149.57 c -4.3477,0 -7.8711,3.5234 -7.8711,7.8711 0,4.3477 3.5234,7.8711 7.8711,7.8711 z m -23.617,47.23 v 15.746 c -0.004,4.1758 -1.6641,8.1758 -4.6172,11.129 -2.9492,2.9492 -6.9531,4.6094 -11.125,4.6172 h -15.746 c -4.1719,-0.008 -8.1758,-1.668 -11.125,-4.6172 -2.9531,-2.9531 -4.6133,-6.9531 -4.6172,-11.129 v -15.742 c 0.004,-4.1758 1.6641,-8.1758 4.6172,-11.129 2.9492,-2.9531 6.9531,-4.6133 11.125,-4.6172 h 15.746 c 4.1719,0.004 8.1758,1.6641 11.125,4.6172 2.9531,2.9531 4.6133,6.9531 4.6172,11.129 z m -15.734,15.742 -0.008,-15.738 h -15.746 v 15.742 z m 15.734,47.238 v 15.742 c -0.004,4.1758 -1.6641,8.1758 -4.6172,11.129 -2.9492,2.9492 -6.9531,4.6094 -11.125,4.6172 h -15.746 c -4.1719,-0.008 -8.1758,-1.668 -11.125,-4.6172 -2.9531,-2.9531 -4.6133,-6.9531 -4.6172,-11.129 v -15.742 c 0.004,-4.1758 1.6641,-8.1758 4.6172,-11.129 2.9492,-2.9531 6.9531,-4.6133 11.125,-4.6172 h 15.746 c 4.1719,0.004 8.1758,1.6641 11.125,4.6172 2.9531,2.9531 4.6133,6.9531 4.6172,11.129 z m -15.734,15.742 -0.008,-15.742 h -15.746 v 15.742 z m 15.734,47.23 v 15.746 c -0.004,4.1758 -1.6641,8.1758 -4.6172,11.129 -2.9492,2.9492 -6.9531,4.6094 -11.125,4.6133 h -15.746 c -4.1719,-0.004 -8.1758,-1.6641 -11.125,-4.6133 -2.9531,-2.9531 -4.6133,-6.9531 -4.6172,-11.129 v -15.746 c 0.004,-4.1719 1.6641,-8.1758 4.6172,-11.125 2.9492,-2.9531 6.9531,-4.6133 11.125,-4.6172 h 15.746 c 4.1719,0.004 8.1758,1.6641 11.125,4.6172 2.9531,2.9492 4.6133,6.9531 4.6172,11.125 z m -15.734,15.742 -0.008,-15.742 h -15.746 v 15.742 z"
           id="path2037" /></g></g><g
       id="g2129"
       transform="translate(-147.25672,-171.88095)"><text
         xml:space="preserve"
         style="font-style:normal;font-variant:normal;font-weight:normal;font-stretch:normal;font-size:6.35px;font-family:serif;-inkscape-font-specification:serif;text-align:center;text-anchor:middle;fill:none;stroke:#000000;stroke-width:0.705556"
         x="80.097076"
         y="280.73331"
         id="text290-6-6-6-1-9-9"><tspan
           sodipodi:role="line"
           style="text-align:center;text-anchor:middle;fill:#000000;fill-opacity:1;stroke:none;stroke-width:0.705556"
           x="80.097076"
           y="280.73331"
           id="tspan1526-1-4">Bug reports</tspan></text><g
         style="fill:#000000"
         id="g2117"
         transform="matrix(0.04397303,0,0,0.04397303,61.446262,244.67991)"><g
           id="g2102"><path
             d="m 560.43,487.22 c -2.9297,-1.2305 -6.3164,-0.57812 -8.5781,1.6562 l -18.027,18.105 -18.027,-18.105 c -1.4805,-1.4922 -3.4922,-2.3281 -5.5898,-2.3281 -2.0977,0 -4.1094,0.83594 -5.5898,2.3281 l -18.027,18.105 -18.027,-18.105 c -1.4766,-1.4922 -3.4883,-2.3281 -5.5859,-2.3281 -2.1016,0 -4.1133,0.83594 -5.5898,2.3281 l -18.027,18.105 -18.027,-18.105 c -1.4766,-1.4922 -3.4922,-2.3281 -5.5898,-2.3281 -2.0977,0 -4.1094,0.83594 -5.5898,2.3281 l -18.027,18.105 -18.027,-18.105 c -1.4766,-1.4922 -3.4883,-2.3281 -5.5859,-2.3281 -2.1016,0 -4.1133,0.83594 -5.5898,2.3281 l -18.027,18.105 -18.027,-18.105 c -1.4766,-1.4922 -3.4883,-2.3281 -5.5898,-2.3281 -2.0977,0 -4.1094,0.83594 -5.5898,2.3281 l -18.023,18.105 -18.027,-18.105 c -1.4805,-1.4922 -3.4922,-2.3281 -5.5898,-2.3281 -2.1016,0 -4.1133,0.83594 -5.5898,2.3281 l -18.027,18.105 -18.027,-18.105 c -2.2617,-2.2344 -5.6484,-2.8867 -8.5781,-1.6562 -2.9414,1.2109 -4.8672,4.0664 -4.8828,7.2422 v 125.95 c 0,2.0898 0.82812,4.0898 2.3047,5.5664 1.4766,1.4766 3.4805,2.3086 5.5664,2.3086 h 330.62 c 2.0898,0 4.0898,-0.83203 5.5664,-2.3086 1.4766,-1.4766 2.3086,-3.4766 2.3086,-5.5664 v -125.95 c -0.0156,-3.1758 -1.9414,-6.0312 -4.8828,-7.2422 z m -10.863,125.32 h -314.88 v -99.109 l 10.156,10.234 h -0.004 c 1.4805,1.4922 3.4922,2.3281 5.5898,2.3281 2.0977,0 4.1133,-0.83594 5.5898,-2.3281 l 18.027,-18.105 18.027,18.105 c 1.4766,1.4922 3.4883,2.3281 5.5898,2.3281 2.0977,0 4.1094,-0.83594 5.5859,-2.3281 l 18.027,-18.105 18.027,18.105 c 1.4805,1.4922 3.4922,2.3281 5.5898,2.3281 2.0977,0 4.1094,-0.83594 5.5898,-2.3281 l 18.027,-18.105 18.027,18.105 c 1.4766,1.4922 3.4883,2.3281 5.5859,2.3281 2.1016,0 4.1133,-0.83594 5.5898,-2.3281 l 18.027,-18.105 18.027,18.105 c 1.4766,1.4922 3.4883,2.3281 5.5898,2.3281 2.0977,0 4.1094,-0.83594 5.5898,-2.3281 l 18.027,-18.105 18.027,18.105 h -0.004 c 1.4805,1.4922 3.4922,2.3281 5.5898,2.3281 2.1016,0 4.1133,-0.83594 5.5898,-2.3281 l 18.027,-18.105 18.027,18.105 c 1.4766,1.4922 3.4883,2.3281 5.5898,2.3281 2.0977,0 4.1094,-0.83594 5.5859,-2.3281 l 10.156,-10.234 z"
             id="path2090" /><path
             d="m 620.41,337.02 h -15.742 c -0.008,-5.0703 -0.48438,-10.133 -1.418,-15.117 l 13.855,-9.9961 c 3.1016,-2.6562 3.6562,-7.2422 1.2812,-10.562 -2.3789,-3.3203 -6.8984,-4.2695 -10.414,-2.1914 l -9.6055,6.8477 0.004,0.004 c -1.9023,-4.6562 -4.3047,-9.0898 -7.1641,-13.227 -6.1523,-8.9141 -15.371,-15.25 -25.898,-17.789 v -111.16 c 0,-2.0859 -0.83203,-4.0898 -2.3086,-5.5664 -1.4766,-1.4727 -3.4766,-2.3047 -5.5664,-2.3047 h -330.62 c -4.3477,0 -7.8711,3.5234 -7.8711,7.8711 v 291.27 c -0.0117,2.0938 0.80859,4.1055 2.2852,5.5898 l 23.617,23.617 h -0.004 c 1.4805,1.4883 3.4922,2.3281 5.5898,2.3281 2.0977,0 4.1133,-0.83984 5.5898,-2.3281 l 18.027,-18.105 18.027,18.105 c 1.4766,1.4883 3.4883,2.3281 5.5898,2.3281 2.0977,0 4.1094,-0.83984 5.5859,-2.3281 l 18.027,-18.105 18.027,18.105 c 1.4805,1.4883 3.4922,2.3281 5.5898,2.3281 2.0977,0 4.1094,-0.83984 5.5898,-2.3281 l 18.027,-18.105 18.027,18.105 c 1.4766,1.4883 3.4883,2.3281 5.5859,2.3281 2.1016,0 4.1133,-0.83984 5.5898,-2.3281 l 18.027,-18.105 18.027,18.105 c 1.4766,1.4883 3.4883,2.3281 5.5898,2.3281 2.0977,0 4.1094,-0.83984 5.5898,-2.3281 l 18.027,-18.105 18.027,18.105 h -0.004 c 1.4805,1.4883 3.4922,2.3281 5.5898,2.3281 2.1016,0 4.1133,-0.83984 5.5898,-2.3281 l 18.027,-18.105 18.027,18.105 c 1.4766,1.4883 3.4883,2.3281 5.5898,2.3281 2.0977,0 4.1094,-0.83984 5.5859,-2.3281 l 23.617,-23.617 c 1.4727,-1.4844 2.2969,-3.4961 2.2852,-5.5898 v -56.047 c 11.145,-2.8633 20.777,-9.875 26.922,-19.602 l 15.742,11.18 v -0.004 c 1.3281,0.96484 2.9258,1.4883 4.5664,1.4961 3.4023,-0.0195 6.4062,-2.2266 7.4453,-5.4688 1.0391,-3.2422 -0.12109,-6.7812 -2.8789,-8.7773 l -17.555,-12.516 c 1.5234,-4.0977 2.707,-8.3086 3.543,-12.598 h 17.316 c 4.3477,0 7.875,-3.5234 7.875,-7.8711 0,-4.3477 -3.5273,-7.8711 -7.875,-7.8711 z m -41.801,-34.793 c 0.70703,1.0234 1.3398,2.2031 1.9688,3.3047 h -46.285 c 0.70703,-1.1797 1.3398,-2.3633 2.0469,-3.4648 2.8242,-5.0234 7.3438,-8.8789 12.754,-10.871 5.4102,-1.9922 11.352,-1.9922 16.762,0 5.4102,1.9922 9.9297,5.8477 12.754,10.871 z m -29.047,149.64 -15.742,15.742 -18.027,-18.105 c -1.4805,-1.4883 -3.4922,-2.3281 -5.5898,-2.3281 -2.0977,0 -4.1094,0.83984 -5.5898,2.3281 l -18.027,18.109 -18.027,-18.105 v -0.004 c -1.4766,-1.4883 -3.4883,-2.3281 -5.5859,-2.3281 -2.1016,0 -4.1133,0.83984 -5.5898,2.3281 l -18.027,18.109 -18.027,-18.105 v -0.004 c -1.4766,-1.4883 -3.4922,-2.3281 -5.5898,-2.3281 -2.0977,0 -4.1094,0.83984 -5.5898,2.3281 l -18.027,18.109 -18.027,-18.105 v -0.004 c -1.4766,-1.4883 -3.4883,-2.3281 -5.5859,-2.3281 -2.1016,0 -4.1133,0.83984 -5.5898,2.3281 l -18.027,18.109 -18.027,-18.105 v -0.004 c -1.4766,-1.4883 -3.4883,-2.3281 -5.5898,-2.3281 -2.0977,0 -4.1094,0.83984 -5.5898,2.3281 l -18.023,18.109 -18.027,-18.105 v -0.004 c -1.4805,-1.4883 -3.4922,-2.3281 -5.5898,-2.3281 -2.1016,0 -4.1133,0.83984 -5.5898,2.3281 l -18.027,18.109 -15.742,-15.742 v -280.17 h 314.88 v 103.28 c -10.625,2.6055 -19.906,9.0547 -26.055,18.105 -2.8281,4.0156 -5.1797,8.3477 -7.0078,12.91 l -9.6055,-6.8477 0.004,-0.004 c -3.5156,-2.0781 -8.0352,-1.1289 -10.414,2.1914 -2.375,3.3203 -1.8203,7.9062 1.2812,10.562 l 13.855,9.9961 c -0.92188,4.9883 -1.3945,10.047 -1.418,15.117 h -15.746 c -4.3477,0 -7.8711,3.5234 -7.8711,7.8711 0,4.3477 3.5234,7.8711 7.8711,7.8711 h 17.32 c 0.83594,4.2891 2.0195,8.5 3.543,12.598 l -17.555,12.516 c -2.7578,1.9961 -3.918,5.5352 -2.8828,8.7773 1.0391,3.2422 4.043,5.4492 7.4492,5.4688 1.6406,-0.008 3.2344,-0.53125 4.5664,-1.4961 l 15.742,-11.18 v 0.004 c 6.1445,9.7266 15.777,16.738 26.922,19.602 z m 7.8711,-67.621 c -17.082,0 -31.488,-21.648 -31.488,-47.23 -0.0273,-4.3672 0.42188,-8.7227 1.3398,-12.988 0.12109,-0.92969 0.30859,-1.8516 0.55078,-2.7578 h 59.199 c 0.26953,0.98438 0.48047,1.9844 0.62891,2.9922 0.86719,4.1953 1.2891,8.4688 1.2578,12.754 0,25.582 -14.406,47.23 -31.488,47.23 z"
             id="path2092" /><path
             d="m 266.18,218.94 h 251.9 c 4.3477,0 7.8711,-3.5234 7.8711,-7.8711 0,-4.3477 -3.5234,-7.8711 -7.8711,-7.8711 h -251.9 c -4.3477,0 -7.875,3.5234 -7.875,7.8711 0,4.3477 3.5273,7.8711 7.875,7.8711 z"
             id="path2094" /><path
             d="m 525.95,242.56 c 0,-2.0898 -0.82812,-4.0898 -2.3047,-5.5664 -1.4766,-1.4766 -3.4766,-2.3047 -5.5664,-2.3047 h -251.9 c -4.3477,0 -7.875,3.5234 -7.875,7.8711 0,4.3477 3.5273,7.8711 7.875,7.8711 h 251.9 c 2.0898,0 4.0898,-0.82813 5.5664,-2.3047 1.4766,-1.4766 2.3047,-3.4805 2.3047,-5.5664 z"
             id="path2096" /><path
             d="m 518.08,541.7 h -251.9 c -4.3477,0 -7.875,3.5234 -7.875,7.8711 0,4.3477 3.5273,7.8711 7.875,7.8711 h 251.9 c 4.3477,0 7.8711,-3.5234 7.8711,-7.8711 0,-4.3477 -3.5234,-7.8711 -7.8711,-7.8711 z"
             id="path2098" /><path
             d="m 518.08,573.18 h -251.9 c -4.3477,0 -7.875,3.5234 -7.875,7.8711 0,4.3477 3.5273,7.8711 7.875,7.8711 h 251.9 c 4.3477,0 7.8711,-3.5234 7.8711,-7.8711 0,-4.3477 -3.5234,-7.8711 -7.8711,-7.8711 z"
             id="path2100" /></g></g></g><g
       id="g2189"
       transform="translate(-120.73414,-38.780746)"><rect
         style="fill:none;stroke:#000000;stroke-width:0.705556"
         id="rect234-3-3-5-7"
         width="72.396271"
         height="26.707844"
         x="17.479691"
         y="77.082207" /><text
         xml:space="preserve"
         style="font-style:normal;font-variant:normal;font-weight:normal;font-stretch:normal;font-size:6.35px;font-family:serif;-inkscape-font-specification:serif;fill:none;stroke:#000000;stroke-width:0.705556"
         x="23.871849"
         y="91.953865"
         id="text290-6-6-6-8"><tspan
           sodipodi:role="line"
           id="tspan288-7-7-2-4"
           style="fill:#000000;fill-opacity:1;stroke:none;stroke-width:0.705556"
           x="23.871849"
           y="91.953865">Issue tracking</tspan></text><g
         style="fill:#000000"
         id="g2179"
         transform="matrix(0.04025581,0,0,0.04025581,58.406737,75.670509)"><g
           id="g2167"><path
             d="m 330.18,388.08 c 0.86719,0.44141 19.184,10.051 28.605,36.148 -7.5938,4.75 -14.234,10.809 -19.762,17.809 12.57,20.633 35.09,34.562 60.984,34.562 25.894,0 48.418,-13.93 60.984,-34.562 -5.5312,-7.0039 -12.18,-13.062 -19.762,-17.809 9.4102,-26.098 27.723,-35.707 28.605,-36.148 3.8789,-1.9023 5.5039,-6.5859 3.6016,-10.492 -1.9023,-3.9297 -6.6133,-5.5156 -10.516,-3.6523 -1.0977,0.52734 -24.02,12.117 -35.934,43.301 -8.4297,-3.1094 -17.496,-4.8945 -26.992,-4.8945 -9.496,0 -18.566,1.7891 -26.98,4.8984 -11.902,-31.199 -34.84,-42.773 -35.934,-43.301 -3.8906,-1.8906 -8.5664,-0.27734 -10.465,3.6133 -1.918,3.8789 -0.30469,8.5898 3.5625,10.527 z"
             id="path2161" /><path
             d="M 573.18,182.58 H 226.81 c -27.824,0 -50.383,22.559 -50.383,50.383 v 308.58 c 0,27.824 22.559,50.383 50.383,50.383 h 11.551 c 0.33984,-0.66797 0.57812,-1.3711 0.96875,-2.0273 l 16.727,-27.305 c -12.785,-0.56641 -23.641,-8.1602 -29.156,-18.941 l -9.5352,-0.004 v -260.31 h 365.26 v 260.3 h -9.5352 c -5.5156,10.77 -16.387,18.375 -29.156,18.941 l 16.703,27.27 c 0.40234,0.66797 0.64062,1.3867 0.99609,2.0664 h 11.551 c 27.824,0 50.383,-22.559 50.383,-50.383 v -308.58 c -0.008,-27.82 -22.562,-50.379 -50.387,-50.379 z m -337.97,65.082 c -6.3711,0 -11.551,-5.1641 -11.551,-11.551 0,-6.375 5.1758,-11.551 11.551,-11.551 6.3752,0 11.539,5.1758 11.539,11.551 0,6.3867 -5.1641,11.551 -11.539,11.551 z m 41.98,0 c -6.3867,0 -11.551,-5.1758 -11.551,-11.551 0,-6.3752 5.1641,-11.551 11.551,-11.551 6.375,0 11.551,5.1758 11.551,11.551 0,6.3867 -5.1797,11.551 -11.551,11.551 z m 41.98,0 c -6.375,0 -11.551,-5.1758 -11.551,-11.551 0,-6.3752 5.1758,-11.551 11.551,-11.551 6.3752,0 11.539,5.1758 11.539,11.551 -0.004,6.3867 -5.168,11.551 -11.539,11.551 z"
             id="path2163" /><path
             d="m 542.38,518.54 h -64.449 v -22.281 h 29.41 c 3.2891,0 6.3359,-1.7148 8.0625,-4.5078 l 23.781,-38.793 c 2.7188,-4.457 1.3242,-10.254 -3.125,-12.984 -4.4453,-2.707 -10.254,-1.3242 -12.984,3.125 l -21.008,34.285 h -25.277 c -1.4219,-8.5664 -4.2695,-16.625 -8.2266,-23.992 -15.242,21.574 -40.168,35.82 -68.531,35.82 -28.363,0 -53.289,-14.246 -68.531,-35.82 -3.9531,7.3672 -6.8008,15.441 -8.2266,23.992 h -25.277 l -21.008,-34.285 c -2.7188,-4.457 -8.5391,-5.832 -12.984,-3.125 -4.457,2.7344 -5.8438,8.5391 -3.125,12.984 l 23.781,38.793 c 1.7266,2.8086 4.7734,4.5078 8.0625,4.5078 h 29.41 v 22.281 h -64.508 c -5.2148,0 -9.4453,4.2305 -9.4453,9.4453 0,5.2148 4.2305,9.4453 9.4453,9.4453 h 64.449 v 0.74219 c 0,7.4805 1.1211,14.688 3.0859,21.539 h -32.496 c -3.2891,0 -6.3359,1.7148 -8.0625,4.5078 l -23.781,38.793 c -2.7188,4.457 -1.3242,10.254 3.125,12.984 1.5352,0.94531 3.2383,1.3984 4.9258,1.3984 3.1875,0 6.2852,-1.6133 8.0742,-4.5078 l 21.008,-34.297 h 35.52 c 13.68,22.445 38.301,37.496 66.516,37.496 28.215,0 52.836,-15.039 66.516,-37.496 h 35.52 l 21.008,34.297 c 1.7891,2.8984 4.8867,4.5078 8.0742,4.5078 1.6875,0 3.3867,-0.45313 4.9258,-1.3984 4.457,-2.7344 5.8438,-8.5391 3.125,-12.984 l -23.781,-38.793 c -1.7266,-2.8086 -4.7734,-4.5078 -8.0625,-4.5078 h -32.496 c 1.9648,-6.8516 3.0859,-14.055 3.0859,-21.539 v -0.74219 h 64.449 c 5.2148,0 9.4453,-4.2305 9.4453,-9.4453 0.004,-5.2109 -4.2031,-9.4453 -9.418,-9.4453 z"
             id="path2165" /></g></g></g><g
       id="g6112"
       transform="translate(-40.607336)"><g
         id="g2373"
         transform="translate(-23.509161,-123.97459)"><rect
           style="fill:none;stroke:#000000;stroke-width:0.705556"
           id="rect234-3-3-5-0-2"
           width="72.396271"
           height="26.707844"
           x="120.48195"
           y="92.987183" /><text
           xml:space="preserve"
           style="font-style:normal;font-variant:normal;font-weight:normal;font-stretch:normal;font-size:6.35px;font-family:serif;-inkscape-font-specification:serif;text-align:center;text-anchor:middle;fill:none;stroke:#000000;stroke-width:0.705556"
           x="138.53516"
           y="105.10814"
           id="text290-6-6-6-9-6"><tspan
             sodipodi:role="line"
             id="tspan288-7-7-2-3-1"
             style="text-align:center;text-anchor:middle;fill:#000000;fill-opacity:1;stroke:none;stroke-width:0.705556"
             x="138.53516"
             y="105.10814">Manual</tspan><tspan
             sodipodi:role="line"
             style="text-align:center;text-anchor:middle;fill:#000000;fill-opacity:1;stroke:none;stroke-width:0.705556"
             x="138.53516"
             y="113.04564"
             id="tspan1231-8">testing</tspan></text><g
           style="fill:#000000"
           id="g2254"
           transform="matrix(0.04131738,0,0,0.04131738,159.86702,89.814293)"><g
             id="g2239"><path
               d="m 562.49,382.36 c -33.734,-8.8672 -78.102,19.516 -78.102,19.516 0,0 -35.156,-69.211 -56.438,-72.762 -21.293,-3.5508 7.2891,58.566 30.25,94.055 0,0 -26.723,3.5508 -16.078,28.402 10.648,24.844 23.086,69.211 47.918,62.113 24.855,-7.0977 42.555,22.133 42.555,22.133 l 85.223,-43.43 c 0.0156,-0.004 -21.617,-101.16 -55.328,-110.03 z"
               id="path2227" /><path
               d="M 435.61,405.62 H 332.43 c -1.0859,6.7852 -3.3906,14.008 -6.0352,21.293 h 106.68 c 2.5625,-4.0312 5.9102,-7.0859 9.3828,-9.168 -2.0156,-3.4453 -4.3672,-7.5898 -6.8516,-12.125 z"
               id="path2229" /><path
               d="m 313.67,383.87 c -14.609,-7.8047 -41.859,44.816 -49.676,70.152 0,0 -2.3516,-12.238 -7.793,-29.691 2.3281,1.0977 4.8047,1.9141 7.4219,2.2734 l 6.9297,-14.086 c 1.1992,-2.2969 2.4961,-4.6016 3.8047,-6.8867 h -7.4453 c -2.1602,0 -3.918,-1.7578 -3.918,-3.9062 v -26.422 h 10.77 c 3.5586,0 6.4492,-3.8398 6.4492,-8.5742 v -75.48 c 0,-4.7344 -2.8867,-8.5859 -6.4492,-8.5859 h -10.77 v -26.422 c 0,-2.1484 1.7461,-3.9062 3.918,-3.9062 h 248.98 c 2.1602,0 3.918,1.7461 3.918,3.9062 v 118.3 c 6.7969,-1.9805 13.996,-3.5039 21.293,-4.1523 l 0.004,-114.17 c 0,-13.895 -11.32,-25.191 -25.211,-25.191 h -248.98 c -13.895,0 -25.211,11.297 -25.211,25.191 v 110.19 c -9.6055,7.9922 -45.902,39.254 -45.902,54.469 0,17.543 5.832,48.723 0,79.895 l -13.637,23.387 95.477,44.805 c 0,0 42.867,-46.766 35.066,-70.152 -7.793,-23.375 -7.8359,-44.805 0.96094,-68.195 8.7891,-23.375 14.578,-38.961 0,-46.75 z"
               id="path2231" /><path
               d="m 413.12,304.51 h -18.629 c -2.957,0 -5.3281,2.375 -5.3281,5.3281 v 19.816 c 0,2.9453 2.375,5.3164 5.3281,5.3164 2.9336,0 5.3281,-2.375 5.3281,-5.3164 v -14.488 h 13.301 c 2.9453,0 5.3281,-2.3828 5.3281,-5.3281 -0.0117,-2.957 -2.3867,-5.3281 -5.3281,-5.3281 z"
               id="path2233" /><path
               d="m 461.04,334.96 c 2.9336,0 5.3281,-2.375 5.3281,-5.3164 v -19.816 c 0,-2.9453 -2.3945,-5.3281 -5.3281,-5.3281 h -18.629 c -2.957,0 -5.3281,2.375 -5.3281,5.3281 0,2.9453 2.375,5.3281 5.3281,5.3281 h 13.301 v 14.488 c 0.008,2.9453 2.3711,5.3164 5.3281,5.3164 z"
               id="path2235" /><path
               d="m 394.49,345.93 c -2.957,0 -5.3281,2.3828 -5.3281,5.3281 v 19.805 c 0,2.9453 2.375,5.3281 5.3281,5.3281 h 18.629 c 2.9453,0 5.3281,-2.3828 5.3281,-5.3281 0,-2.9453 -2.3828,-5.3281 -5.3281,-5.3281 h -13.301 v -14.477 c -0.008,-2.9414 -2.3945,-5.3281 -5.3281,-5.3281 z"
               id="path2237" /></g></g></g><g
         id="g2565"
         transform="translate(-103.60628,-79.29061)"><rect
           style="fill:none;stroke:#000000;stroke-width:0.705556"
           id="rect234-3-3-5-0"
           width="72.396271"
           height="26.707844"
           x="119.36439"
           y="48.3032" /><text
           xml:space="preserve"
           style="font-style:normal;font-variant:normal;font-weight:normal;font-stretch:normal;font-size:6.35px;font-family:serif;-inkscape-font-specification:serif;text-align:center;text-anchor:middle;fill:none;stroke:#000000;stroke-width:0.705556"
           x="137.4176"
           y="60.42416"
           id="text290-6-6-6-9"><tspan
             sodipodi:role="line"
             id="tspan288-7-7-2-3"
             style="text-align:center;text-anchor:middle;fill:#000000;fill-opacity:1;stroke:none;stroke-width:0.705556"
             x="137.4176"
             y="60.42416">Automated</tspan><tspan
             sodipodi:role="line"
             style="text-align:center;text-anchor:middle;fill:#000000;fill-opacity:1;stroke:none;stroke-width:0.705556"
             x="137.4176"
             y="68.361656"
             id="tspan1231">testing</tspan></text><g
           style="fill:#000000"
           id="g2551"
           transform="matrix(0.04800901,0,0,0.04800901,157.60515,42.453772)"><path
             d="m 585.26,219.08 -50.402,-50.402 c -1.4102,-1.4102 -3.3281,-2.2031 -5.3281,-2.2031 h -260.69 c -4.1602,0 -7.5312,3.375 -7.5312,7.5312 v 41.246 h -41.246 c -4.1602,0 -7.5312,3.375 -7.5312,7.5312 v 403.2 c 0,4.1602 3.375,7.5312 7.5312,7.5312 h 311.09 c 4.1602,0 7.5312,-3.375 7.5312,-7.5312 v -41.246 h 41.246 c 4.1602,0 7.5312,-3.375 7.5312,-7.5312 l -0.004,-352.8 c 0.008,-2 -0.78516,-3.9141 -2.2031,-5.3281 z m -48.191,-26.891 24.688,24.68 h -24.688 z m -309.47,426.27 v -388.14 h 245.62 v 42.871 c 0,4.1602 3.375,7.5312 7.5312,7.5312 h 42.871 v 337.73 l -296.02,0.004 z m 260.69,-377.49 24.688,24.68 h -24.688 z m 50.402,328.71 v -296.49 c 0,-2 -0.79297,-3.9141 -2.2031,-5.3281 l -50.402,-50.402 c -1.4102,-1.4102 -3.3281,-2.2031 -5.3281,-2.2031 l -204.38,0.004 v -33.715 h 245.62 v 42.871 c 0,4.1602 3.375,7.5312 7.5312,7.5312 H 572.4 v 337.73 z m -119.12,-207.4 c 0,4.1602 -3.375,7.5312 -7.5312,7.5312 h -47.609 c -4.1602,0 -7.5312,-3.375 -7.5312,-7.5312 0,-4.1562 3.375,-7.5312 7.5312,-7.5312 h 47.609 c 4.1562,0 7.5312,3.3672 7.5312,7.5312 z m 0,-40.527 c 0,4.1602 -3.375,7.5312 -7.5312,7.5312 h -47.609 c -4.1602,0 -7.5312,-3.375 -7.5312,-7.5312 0,-4.1562 3.375,-7.5312 7.5312,-7.5312 h 47.609 c 4.1562,0 7.5312,3.375 7.5312,7.5312 z m 0,95.852 c 0,4.1602 -3.375,7.5312 -7.5312,7.5312 h -47.609 c -4.1602,0 -7.5312,-3.375 -7.5312,-7.5312 0,-4.1562 3.375,-7.5312 7.5312,-7.5312 h 47.609 c 4.1562,-0.008 7.5312,3.3672 7.5312,7.5312 z m 0,40.52 c 0,4.1602 -3.375,7.5312 -7.5312,7.5312 h -47.609 c -4.1602,0 -7.5312,-3.375 -7.5312,-7.5312 0,-4.1562 3.375,-7.5312 7.5312,-7.5312 h 47.609 c 4.1562,0 7.5312,3.375 7.5312,7.5312 z m 0,55.324 c 0,4.1602 -3.375,7.5312 -7.5312,7.5312 h -47.609 c -4.1602,0 -7.5312,-3.375 -7.5312,-7.5312 0,-4.1602 3.375,-7.5312 7.5312,-7.5312 h 47.609 c 4.1562,0 7.5312,3.3672 7.5312,7.5312 z m 0,40.523 c 0,4.1602 -3.375,7.5312 -7.5312,7.5312 h -47.609 c -4.1602,0 -7.5312,-3.375 -7.5312,-7.5312 0,-4.1562 3.375,-7.5312 7.5312,-7.5312 h 47.609 c 4.1562,-0.004 7.5312,3.3711 7.5312,7.5312 z m -86.543,-245.56 -11.094,10.07 c -2.6406,-7.1992 -9.5391,-12.359 -17.645,-12.359 h -34.176 c -10.371,0 -18.809,8.4375 -18.809,18.809 v 34.176 c 0,10.371 8.4375,18.809 18.809,18.809 h 34.176 c 10.371,0 18.809,-8.4375 18.809,-18.809 v -21.332 l 20.059,-18.199 c 3.082,-2.7969 3.3125,-7.5586 0.51562,-10.637 -2.8008,-3.0938 -7.5664,-3.3281 -10.645,-0.52734 z m -24.996,50.691 c 0,2.0312 -1.7148,3.7422 -3.7422,3.7422 h -34.176 c -2.0312,0 -3.7422,-1.7148 -3.7422,-3.7422 v -34.176 c 0,-2.0312 1.7148,-3.7422 3.7422,-3.7422 h 34.176 c 2.0312,0 3.7422,1.7148 3.7422,3.7422 v 6.168 l -9.9883,9.0625 -11.52,-11.52 c -2.9453,-2.9375 -7.7109,-2.9375 -10.652,0 -2.9453,2.9453 -2.9453,7.7109 0,10.652 l 16.594,16.594 c 1.4688,1.4648 3.3945,2.2031 5.3281,2.2031 1.8125,0 3.6211,-0.65234 5.0586,-1.957 l 5.1758,-4.6953 -0.004,7.668 z m 24.996,45.152 -11.094,10.07 c -2.6406,-7.1992 -9.5391,-12.359 -17.645,-12.359 h -34.176 c -10.371,0 -18.809,8.4375 -18.809,18.809 v 34.176 c 0,10.371 8.4375,18.809 18.809,18.809 h 34.176 c 10.371,0 18.809,-8.4375 18.809,-18.809 v -21.332 l 20.059,-18.199 c 3.082,-2.7969 3.3125,-7.5586 0.51562,-10.637 -2.8008,-3.0938 -7.5664,-3.3242 -10.645,-0.52734 z m -24.996,50.691 c 0,2.0312 -1.7148,3.7422 -3.7422,3.7422 h -34.176 c -2.0312,0 -3.7422,-1.7148 -3.7422,-3.7422 v -34.176 c 0,-2.0312 1.7148,-3.7422 3.7422,-3.7422 h 34.176 c 2.0312,0 3.7422,1.7148 3.7422,3.7422 v 6.168 l -9.9883,9.0625 -11.52,-11.52 c -2.9453,-2.9375 -7.7109,-2.9375 -10.652,0 -2.9453,2.9453 -2.9453,7.7109 0,10.652 l 16.594,16.594 c 1.4688,1.4648 3.3945,2.2031 5.3281,2.2031 1.8125,0 3.6211,-0.65234 5.0586,-1.957 l 5.1758,-4.6953 -0.004,7.668 z m 24.996,45.152 -11.094,10.07 c -2.6406,-7.1992 -9.5391,-12.359 -17.645,-12.359 h -34.176 c -10.371,0 -18.809,8.4375 -18.809,18.809 v 34.176 c 0,10.371 8.4375,18.809 18.809,18.809 h 34.176 c 10.371,0 18.809,-8.4375 18.809,-18.809 v -21.332 l 20.059,-18.199 c 3.082,-2.7969 3.3125,-7.5586 0.51562,-10.637 -2.8008,-3.0938 -7.5664,-3.3242 -10.645,-0.52734 z m -24.996,50.699 c 0,2.0312 -1.7148,3.7422 -3.7422,3.7422 h -34.176 c -2.0312,0 -3.7422,-1.7148 -3.7422,-3.7422 V 516.62 c 0,-2.0312 1.7148,-3.7422 3.7422,-3.7422 h 34.176 c 2.0312,0 3.7422,1.7148 3.7422,3.7422 v 6.168 l -9.9883,9.0625 -11.52,-11.52 c -2.9453,-2.9375 -7.7109,-2.9375 -10.652,0 -2.9453,2.9453 -2.9453,7.7109 0,10.652 l 16.594,16.594 c 1.4688,1.4648 3.3945,2.2031 5.3281,2.2031 1.8125,0 3.6211,-0.65234 5.0586,-1.957 l 5.1758,-4.6953 -0.004,7.668 z m 167.3,-246.81 c -1.3438,-2.332 -3.832,-3.7695 -6.5234,-3.7695 -2.6914,0 -5.1797,1.4375 -6.5234,3.7695 l -23.59,40.855 c -0.66016,1.1445 -1.0078,2.4453 -1.0078,3.7695 v 199.71 c 0,14.992 12.195,27.191 27.191,27.191 h 7.8633 c 14.992,0 27.191,-12.195 27.191,-27.191 l -0.004,-199.71 c 0,-1.3242 -0.34766,-2.625 -1.0078,-3.7695 z m -6.5234,18.832 10.539,18.258 h -21.082 z m -16.055,225.5 v -192.17 h 8.5234 v 203.75 c -4.9336,-1.543 -8.5234,-6.1484 -8.5234,-11.582 z m 23.586,11.578 v -203.75 h 8.5234 v 192.18 c 0,5.4297 -3.5898,10.035 -8.5234,11.574 z"
             id="path2542" /></g></g></g><g
       id="g2685"
       transform="translate(-82.588228,3.5563236)"><rect
         style="fill:none;stroke:#000000;stroke-width:0.705556"
         id="rect234-3-3"
         width="72.396271"
         height="26.707844"
         x="15.758112"
         y="173.30096" /><text
         xml:space="preserve"
         style="font-style:normal;font-variant:normal;font-weight:normal;font-stretch:normal;font-size:6.35px;font-family:serif;-inkscape-font-specification:serif;text-align:center;text-anchor:middle;fill:none;stroke:#000000;stroke-width:0.705556"
         x="37.537983"
         y="184.61916"
         id="text290-6-6"><tspan
           sodipodi:role="line"
           id="tspan288-7-7"
           style="text-align:center;text-anchor:middle;fill:#000000;fill-opacity:1;stroke:none;stroke-width:0.705556"
           x="37.537983"
           y="184.61916">Software</tspan><tspan
           sodipodi:role="line"
           style="text-align:center;text-anchor:middle;fill:#000000;fill-opacity:1;stroke:none;stroke-width:0.705556"
           x="37.537983"
           y="192.55666"
           id="tspan2576">distribution</tspan></text><g
         style="fill:#000000"
         id="g2666"
         transform="matrix(0.03628638,0,0,0.03628638,57.007745,173.10166)"><g
           id="g2646"><path
             d="m 282.88,326.32 c -1.9297,1.4102 -3.0938,3.6406 -3.1406,6.0312 v 135.29 c 0,2.7734 1.5312,5.3242 3.9766,6.6328 0.44531,0.14453 112.71,60.254 113.16,60.289 2.1289,0.96484 4.5781,0.90625 6.6562,-0.16016 l 112.74,-60.129 h 0.004 c 2.4492,-1.3086 3.9766,-3.8594 3.9766,-6.6328 v -135.29 c -0.0625,-2.1758 -1.0195,-4.2305 -2.6484,-5.6758 -0.45312,-0.3125 -0.85156,-0.67969 -1.3281,-0.96094 l -112.74,-60.129 h -0.004 c -2.2109,-1.1719 -4.8594,-1.1719 -7.0703,0 l -112.74,60.129 h -0.004 c -0.29297,0.18359 -0.57422,0.38281 -0.83984,0.60547 z m 11.891,18.559 41.34,22.047 v 18.41 c 0.043,9.8281 14.992,9.832 15.031,0 v -10.391 l 41.336,22.047 v 118.25 l -97.707,-52.105 z m 201.99,-12.535 -96.766,51.613 -40.402,-21.547 96.773,-51.605 z m -89.25,182.89 v -118.25 l 97.707,-52.113 v 118.25 z m -7.5156,-234.5 40.395,21.539 -96.766,51.609 -40.402,-21.543 z"
             id="path2624" /><path
             d="m 377.45,242.16 h 45.098 c 1.9922,0.004 3.9062,-0.78906 5.3164,-2.1992 1.4102,-1.4102 2.1992,-3.3203 2.1992,-5.3164 v -22.547 h 15.031 c 6.4805,0.21484 10.07,-8.3906 5.3125,-12.832 l -45.094,-45.094 c -1.4102,-1.4102 -3.3203,-2.2031 -5.3125,-2.2031 -1.9961,0 -3.9062,0.79297 -5.3164,2.2031 l -45.094,45.094 c -4.7344,4.4336 -1.1914,13.051 5.3125,12.828 l 15.031,0.004 v 22.547 c 0,1.9961 0.79297,3.9062 2.2031,5.3164 1.4062,1.4102 3.3203,2.2031 5.3125,2.1992 z m 22.551,-72.047 26.953,26.953 h -4.4062 c -1.9922,0 -3.9062,0.78906 -5.3164,2.1992 -1.4102,1.4102 -2.1992,3.3203 -2.1992,5.3164 v 22.547 h -30.062 l -0.004,-22.551 c 0.004,-1.9922 -0.78906,-3.9062 -2.1992,-5.3164 -1.4102,-1.4102 -3.3203,-2.1992 -5.3164,-2.1992 h -4.4023 z"
             id="path2626" /><path
             d="m 249.68,422.55 v -45.098 c 0.004,-1.9922 -0.78906,-3.9062 -2.1992,-5.3125 -1.4102,-1.4102 -3.3203,-2.2031 -5.3164,-2.2031 h -30.062 v -15.031 c 0.21484,-6.4766 -8.4023,-10.09 -12.832,-5.3125 l -45.094,45.094 c -1.4102,1.4102 -2.2031,3.3203 -2.2031,5.3164 0,1.9922 0.79297,3.9023 2.2031,5.3125 l 45.094,45.098 c 4.457,4.7422 13.043,1.1875 12.828,-5.3125 l 0.004,-15.035 h 30.062 c 1.9961,0 3.9062,-0.78906 5.3164,-2.1992 1.4102,-1.4102 2.2031,-3.3242 2.1992,-5.3164 z m -15.031,-7.5156 h -30.066 c -1.9922,0 -3.9062,0.78906 -5.3164,2.1992 -1.4102,1.4102 -2.1992,3.3242 -2.1992,5.3164 v 4.4023 l -26.949,-26.949 26.953,-26.953 v 4.4023 c 0,1.9961 0.78906,3.9062 2.1992,5.3164 1.41014,1.4102 3.3203,2.2031 5.3164,2.1992 h 30.062 z"
             id="path2628" /><path
             d="m 445.09,587.9 h -15.031 v -30.062 c 0,-1.9922 -0.79297,-3.9062 -2.1992,-5.3164 -1.4102,-1.4102 -3.3242,-2.1992 -5.3164,-2.1992 h -45.098 c -1.9922,0 -3.9062,0.78906 -5.3125,2.1992 -1.4102,1.4102 -2.2031,3.3242 -2.2031,5.3164 V 587.9 h -15.031 c -6.4844,-0.21484 -10.07,8.3906 -5.3125,12.832 l 45.098,45.098 -0.004,-0.004 c 1.4102,1.4102 3.3203,2.2031 5.3164,2.2031 1.9922,0 3.9023,-0.79297 5.3125,-2.2031 l 45.098,-45.098 c 4.7305,-4.4297 1.1875,-13.051 -5.3164,-12.828 z m -45.094,41.984 -26.953,-26.953 h 4.4023 v 0.004 c 1.9961,0 3.9062,-0.79297 5.3164,-2.2031 1.4102,-1.4102 2.2031,-3.3203 2.1992,-5.3164 v -30.062 h 30.062 l 0.004,30.066 c 0,1.9961 0.78906,3.9062 2.1992,5.3164 1.4102,1.4102 3.3242,2.1992 5.3164,2.1992 h 4.4023 z"
             id="path2630" /><path
             d="m 600.73,349.59 c -4.4375,-4.7656 -13.043,-1.1758 -12.828,5.3125 l -0.004,15.031 h -30.062 c -1.9922,0 -3.9062,0.79297 -5.3164,2.2031 -1.4062,1.4062 -2.1992,3.3203 -2.1992,5.3125 v 45.098 c 0,1.9922 0.79297,3.9062 2.1992,5.3164 1.4102,1.4062 3.3242,2.1992 5.3164,2.1992 h 30.062 v 15.031 c -0.20703,6.4883 8.3672,10.07 12.832,5.3125 l 45.098,-45.098 v 0.004 c 1.4102,-1.4102 2.1992,-3.3203 2.1992,-5.3125 0,-1.9961 -0.78906,-3.9062 -2.1992,-5.3164 z m 2.2031,77.363 v -4.4062 c 0,-1.9922 -0.79297,-3.9062 -2.2031,-5.3164 -1.4102,-1.4102 -3.3203,-2.1992 -5.3164,-2.1992 h -30.062 v -30.062 l 30.066,-0.004 c 1.9961,0.004 3.9062,-0.78906 5.3164,-2.1992 1.4102,-1.41014 2.1992,-3.3203 2.1992,-5.3164 v -4.4023 l 26.949,26.953 z"
             id="path2632" /><path
             d="m 297.96,224.25 c -1.1641,-2.8086 -3.9062,-4.6406 -6.9453,-4.6406 h -63.816 c -4.168,0.0547 -7.5312,3.4219 -7.5859,7.5898 v 63.812 c -0.21094,6.4922 8.3828,10.07 12.832,5.3125 l 9.7188,-9.7188 20.992,20.992 -0.004,0.004 c 1.4102,1.4102 3.3203,2.1992 5.3164,2.1992 1.9922,0 3.9023,-0.78906 5.3125,-2.1992 l 33.824,-33.824 c 1.4102,-1.4102 2.1992,-3.3203 2.1992,-5.3125 0,-1.9961 -0.78906,-3.9062 -2.1992,-5.3164 l -20.992,-20.992 9.7148,-9.7148 c 2.1523,-2.1523 2.7969,-5.3828 1.6328,-8.1914 z m -6.2969,44.215 -23.195,23.195 -20.992,-20.992 c -4.2109,-4.1289 -9.6133,-1.9258 -12.832,2.2031 v -38.23 h 38.227 c -4.1289,3.2188 -6.332,8.6172 -2.2031,12.832 z"
             id="path2634" /><path
             d="m 492.39,273.78 33.82,33.82 v 0.004 c 1.4102,1.4102 3.3203,2.1992 5.3125,2.1992 1.9961,0 3.9062,-0.78906 5.3164,-2.1992 l 20.992,-20.992 9.7188,9.7148 c 4.4258,4.7383 13.055,1.1914 12.832,-5.3125 l -0.004,-63.812 c -0.0508,-4.168 -3.418,-7.5352 -7.5859,-7.5898 h -63.816 c -6.4844,-0.21484 -10.07,8.3867 -5.3125,12.832 l 9.7188,9.7188 -20.992,20.992 v -0.004 c -1.4102,1.4102 -2.2031,3.3203 -2.2031,5.3164 0,1.9922 0.79297,3.9023 2.2031,5.3125 z m 36.934,-26.305 c 4.1289,-4.2148 1.9258,-9.6094 -2.2031,-12.832 h 38.227 v 38.227 c -3.2188,-4.1289 -8.6172,-6.332 -12.832,-2.2031 l -20.992,20.992 -23.195,-23.195 z"
             id="path2636" /><path
             d="m 575.75,502.04 c -2.8086,-1.1719 -6.0469,-0.52734 -8.1914,1.6289 l -9.7188,9.7188 -20.992,-20.992 c -1.4102,-1.4102 -3.3203,-2.2031 -5.3164,-2.2031 -1.9922,0 -3.9023,0.79297 -5.3125,2.2031 l -33.82,33.82 c -1.4102,1.4102 -2.2031,3.3203 -2.2031,5.3125 0,1.9961 0.79297,3.9062 2.2031,5.3164 l 20.992,20.992 -9.7188,9.7188 c -4.7344,4.4336 -1.1875,13.051 5.3125,12.832 h 63.816 v -0.004 c 4.168,-0.0547 7.5312,-3.4219 7.5859,-7.5898 v -63.812 c 0,-3.0391 -1.8281,-5.7812 -4.6367,-6.9414 z m -10.395,63.312 h -38.227 c 4.1289,-3.2188 6.332,-8.6172 2.2031,-12.832 l -20.992,-20.992 23.195,-23.195 20.992,20.992 c 4.2109,4.1289 9.6133,1.9258 12.832,-2.2031 z"
             id="path2638" /><path
             d="m 273.78,492.39 c -1.4102,-1.4102 -3.3203,-2.2031 -5.3125,-2.2031 -1.9961,0 -3.9062,0.79297 -5.3164,2.2031 l -20.992,20.988 -9.7148,-9.7148 c -4.4375,-4.7422 -13.047,-1.1914 -12.832,5.3125 v 63.812 c 0.0508,4.168 3.418,7.5352 7.5859,7.5898 h 63.816 c 6.4844,0.21484 10.07,-8.3867 5.3125,-12.832 l -9.7188,-9.7188 20.992,-20.992 0.004,0.004 c 1.4102,-1.4102 2.1992,-3.3203 2.1992,-5.3164 0,-1.9922 -0.78906,-3.9023 -2.1992,-5.3125 z m -3.1133,60.129 c -4.1289,4.2148 -1.9258,9.6094 2.2031,12.832 l -38.227,-0.004 V 527.12 c 3.2188,4.1289 8.6172,6.332 12.832,2.2031 l 20.992,-20.992 23.195,23.195 z"
             id="path2640" /><path
             d="m 350.75,423.34 -30.066,-15.031 c -4.7617,-2.5664 -11.047,1.3086 -10.879,6.7227 v 37.578 c 0,2.8438 1.6094,5.4492 4.1562,6.7227 l 30.062,15.031 c 4.7617,2.5625 11.047,-1.3047 10.879,-6.7227 v -37.578 c 0,-2.8477 -1.6094,-5.4492 -4.1523,-6.7227 z m -10.879,32.141 -15.031,-7.5156 v -20.773 l 15.031,7.5156 z"
             id="path2642" /><path
             d="m 478.95,431.05 -52.609,30.062 c -8.5273,4.9219 -1.0586,17.902 7.4609,13.051 l 52.609,-30.062 c 8.4883,-4.9023 1.1133,-17.902 -7.4609,-13.051 z"
             id="path2644" /></g></g></g><g
       id="g5925"><rect
         style="fill:none;stroke:#000000;stroke-width:0.705556"
         id="rect234-3-3-5"
         width="110.24622"
         height="26.707848"
         x="-19.865273"
         y="38.30146" /><text
         xml:space="preserve"
         style="font-style:normal;font-variant:normal;font-weight:normal;font-stretch:normal;font-size:6.35px;font-family:serif;-inkscape-font-specification:serif;fill:none;stroke:#000000;stroke-width:0.705556"
         x="11.122769"
         y="53.827343"
         id="text290-6-6-6"><tspan
           sodipodi:role="line"
           id="tspan288-7-7-2"
           style="fill:#000000;fill-opacity:1;stroke:none;stroke-width:0.705556"
           x="11.122769"
           y="53.827343">Build</tspan></text><g
         style="fill:#000000"
         id="g2755"
         transform="matrix(0.04083209,0,0,0.04083209,39.211206,35.322791)"><g
           id="g2739"><path
             d="m 505.59,341.64 c -6.1484,-6.1484 -16.113,-6.1484 -22.262,0 l -47.23,47.23 c -6.1484,6.1484 -6.1484,16.113 0,22.262 l 47.23,47.23 c 3.0742,3.0781 7.1016,4.6172 11.129,4.6172 4.0273,0 8.0547,-1.5391 11.133,-4.6133 6.1484,-6.1484 6.1484,-16.113 0,-22.262 l -36.102,-36.102 36.102,-36.102 c 6.1523,-6.1523 6.1523,-16.113 0,-22.262 z"
             id="path2725" /><path
             d="m 615.8,388.87 -47.23,-47.23 c -6.1484,-6.1484 -16.113,-6.1484 -22.262,0 -6.1484,6.1484 -6.1484,16.113 0,22.262 l 36.098,36.102 -36.102,36.102 c -6.1484,6.1484 -6.1484,16.113 0,22.262 3.0781,3.0742 7.1055,4.6133 11.133,4.6133 4.0275,0 8.0547,-1.5391 11.133,-4.6133 l 47.23,-47.23 c 6.1523,-6.1523 6.1523,-16.117 0,-22.266 z"
             id="path2727" /><path
             d="m 510.21,321.28 h 31.488 v -62.977 c 0,-8.6953 -7.043,-15.742 -15.742,-15.742 h -173.19 v 31.488 h 157.44 z"
             id="path2729" /><path
             d="M 510.21,525.95 H 352.77 v 31.488 h 173.18 c 8.7031,0 15.742,-7.0508 15.742,-15.742 v -62.977 h -31.488 z"
             id="path2731" /><path
             d="M 321.28,494.46 H 195.33 c -8.7031,0 -15.742,7.043 -15.742,15.742 v 62.977 c 0,8.7031 7.043,15.742 15.742,15.742 h 47.23 c -8.7031,0 -15.742,7.043 -15.742,15.742 0,8.7031 7.043,15.742 15.742,15.742 h 31.488 c 8.7031,0 15.742,-7.043 15.742,-15.742 0,-8.7031 -7.043,-15.742 -15.742,-15.742 h 47.23 c 8.7031,0 15.742,-7.043 15.742,-15.742 v -62.977 c 0.008,-8.6992 -7.0352,-15.742 -15.738,-15.742 z"
             id="path2733" /><path
             d="m 321.28,242.56 h -2.2344 c -1.4883,-5.7188 -3.7539,-11.082 -6.6875,-16.051 l 1.6055,-1.6094 c 6.1484,-6.1484 6.1484,-16.121 0,-22.27 -6.1484,-6.1328 -16.113,-6.1406 -22.262,0.008 l -1.6094,1.6094 c -4.9688,-2.9336 -10.328,-5.1992 -16.043,-6.6836 v -2.2383 c 0,-8.6953 -7.043,-15.742 -15.742,-15.742 -8.7031,0 -15.746,7.0508 -15.746,15.742 v 2.2344 c -5.7148,1.4883 -11.074,3.7539 -16.043,6.6875 l -1.6094,-1.6094 c -6.1484,-6.1484 -16.113,-6.1406 -22.262,-0.008 -6.1484,6.1484 -6.1484,16.121 0,22.27 l 1.6055,1.6094 c -2.9336,4.9688 -5.2031,10.332 -6.6875,16.051 h -2.2383 c -8.6992,0 -15.742,7.0508 -15.742,15.742 0,8.6953 7.043,15.742 15.742,15.742 h 2.2344 c 1.4883,5.7188 3.7539,11.082 6.6875,16.051 l -1.6016,1.6094 c -6.1484,6.1484 -6.1484,16.121 0,22.27 3.0742,3.0664 7.1016,4.6055 11.133,4.6055 4.0273,0 8.0547,-1.5391 11.133,-4.6133 l 1.6094,-1.6094 c 4.9648,2.9336 10.324,5.2031 16.039,6.6875 v 2.2344 c 0,8.6953 7.043,15.742 15.742,15.742 8.7031,0 15.742,-7.0508 15.742,-15.742 v -2.2344 c 5.7148,-1.4844 11.074,-3.7539 16.043,-6.6836 l 1.6094,1.6094 c 3.0742,3.0742 7.1016,4.6133 11.133,4.6133 4.0273,0 8.0547,-1.5391 11.133,-4.6055 6.1484,-6.1484 6.1484,-16.121 0,-22.27 l -1.6055,-1.6094 c 2.9336,-4.9727 5.1992,-10.332 6.6875,-16.051 h 2.2344 c 8.7031,0 15.742,-7.0508 15.742,-15.742 0.004,-8.6953 -7.0391,-15.746 -15.742,-15.746 z m -62.977,47.23 c -17.355,0 -31.488,-14.121 -31.488,-31.488 0,-17.367 14.129,-31.488 31.488,-31.488 17.359,0 31.488,14.121 31.488,31.488 0,17.367 -14.129,31.488 -31.488,31.488 z"
             id="path2735" /><path
             d="m 274.05,258.3 c 0,8.6953 -7.0508,15.746 -15.746,15.746 -8.6953,0 -15.742,-7.0508 -15.742,-15.746 0,-8.6953 7.0469,-15.742 15.742,-15.742 8.6953,0 15.746,7.0469 15.746,15.742"
             id="path2737" /></g></g></g><g
       id="g2976"
       transform="translate(0,-0.24135621)"><rect
         style="fill:none;stroke:#000000;stroke-width:0.705556"
         id="rect234-3"
         width="72.396271"
         height="26.707844"
         x="15.758112"
         y="215.60667" /><text
         xml:space="preserve"
         style="font-style:normal;font-variant:normal;font-weight:normal;font-stretch:normal;font-size:6.35px;font-family:serif;-inkscape-font-specification:serif;fill:none;stroke:#000000;stroke-width:0.705556"
         x="23.87215"
         y="230.37756"
         id="text290-6"><tspan
           sodipodi:role="line"
           id="tspan288-7"
           style="fill:#000000;fill-opacity:1;stroke:none;stroke-width:0.705556"
           x="23.87215"
           y="230.37756">Versioning</tspan></text><g
         style="fill:#000000"
         id="g2962"
         transform="matrix(0.04990495,0,0,0.04990495,53.468291,209.722)"><g
           fill-rule="evenodd"
           id="g2946"><path
             d="m 400,557.44 c -11.594,0 -20.992,9.3984 -20.992,20.992 0,11.5936 9.3984,20.992 20.992,20.992 11.5936,0 20.992,-9.3984 20.992,-20.992 0,-11.5936 -9.3984,-20.992 -20.992,-20.992 z m -41.984,20.992 c 0,-23.188 18.797,-41.984 41.984,-41.984 23.187,0 41.984,18.797 41.984,41.984 0,23.187 -18.797,41.984 -41.984,41.984 -23.187,0 -41.984,-18.797 -41.984,-41.984 z"
             id="path2932" /><path
             d="m 400,200.57 c -11.594,0 -20.992,9.3984 -20.992,20.992 0,11.5936 9.3984,20.992 20.992,20.992 11.5936,0 20.992,-9.3984 20.992,-20.992 0,-11.5936 -9.3984,-20.992 -20.992,-20.992 z m -41.984,20.992 c 0,-23.188 18.797,-41.984 41.984,-41.984 23.187,0 41.984,18.797 41.984,41.984 0,23.187 -18.797,41.984 -41.984,41.984 -23.187,0 -41.984,-18.797 -41.984,-41.984 z"
             id="path2934" /><path
             d="m 504.96,326.53 c -11.594,0 -20.992,9.3984 -20.992,20.992 0,11.5936 9.3984,20.992 20.992,20.992 11.598,0 20.992,-9.3984 20.992,-20.992 0,-11.5936 -9.3945,-20.992 -20.992,-20.992 z m -41.98,20.992 c 0,-23.188 18.793,-41.984 41.98,-41.984 23.191,0 41.984,18.797 41.984,41.984 0,23.187 -18.793,41.984 -41.984,41.984 -23.188,0 -41.98,-18.797 -41.98,-41.984 z"
             id="path2936" /><path
             d="M 410.5,253.05 V 546.94 H 389.508 V 253.05 Z"
             id="path2938" /><path
             d="m 515.45,379.01 v 41.984 c 0,28.98 -23.496,52.48 -52.477,52.48 h -62.977 v -20.992 h 62.977 c 17.387,0 31.484,-14.102 31.484,-31.488 V 379.01 Z"
             id="path2940" /><path
             d="m 295.04,295.04 c 11.594,0 20.992,9.3984 20.992,20.992 0,11.5936 -9.3984,20.992 -20.992,20.992 -11.5936,0 -20.992,-9.3984 -20.992,-20.992 0,-11.5936 9.3984,-20.992 20.992,-20.992 z m 41.984,20.992 c 0,-23.188 -18.797,-41.984 -41.984,-41.984 -23.187,0 -41.984,18.797 -41.984,41.984 0,23.187 18.797,41.984 41.984,41.984 23.187,0 41.984,-18.797 41.984,-41.984 z"
             id="path2942" /><path
             d="m 284.54,347.52 v 41.984 c 0,28.98 23.496,52.48 52.48,52.48 h 62.977 V 420.992 H 337.02 c -17.391,0 -31.488,-14.102 -31.488,-31.488 V 347.52 Z"
             id="path2944" /></g></g></g><g
       id="g3215"
       transform="translate(-11.959503,73.637584)"><g
         style="fill:#000000"
         id="g3172"
         transform="matrix(0.0601609,0,0,0.0601609,23.621552,-5.3354263)"><g
           id="g3157"><path
             d="M 489.5,431.09 V 312.42 c 0,-4.3438 -3.5273,-7.8711 -7.8711,-7.8711 h -163.26 c -4.3438,0 -7.8711,3.5273 -7.8711,7.8711 l -0.004,118.67 c 0,4.3438 3.5273,7.8711 7.8711,7.8711 h 163.26 c 4.3438,0 7.8711,-3.5273 7.8711,-7.8711 z m -15.746,-7.8711 h -147.51 v -102.93 h 147.51 z"
             id="path3145" /><path
             d="m 373.94,352.59 c 0,7.8789 -6.3867,14.262 -14.262,14.262 -7.8789,0 -14.266,-6.3828 -14.266,-14.262 0,-7.8789 6.3867,-14.266 14.266,-14.266 7.875,0 14.262,6.3867 14.262,14.266"
             id="path3147" /><path
             d="m 454.58,352.59 c 0,7.8789 -6.3867,14.262 -14.262,14.262 -7.8789,0 -14.266,-6.3828 -14.266,-14.262 0,-7.8789 6.3867,-14.266 14.266,-14.266 7.875,0 14.262,6.3867 14.262,14.266"
             id="path3149" /><path
             d="m 384.51,407.17 h 30.984 c 4.3438,0 7.8711,-3.5273 7.8711,-7.8711 0,-4.3438 -3.5273,-7.8711 -7.8711,-7.8711 H 384.51 c -4.3438,0 -7.8711,3.5273 -7.8711,7.8711 -0.004,4.3438 3.5234,7.8711 7.8711,7.8711 z"
             id="path3151" /><path
             d="m 263.55,591.59 c 0,4.3438 3.5273,7.8711 7.8711,7.8711 h 257.16 c 4.3438,0 7.8711,-4.0234 7.8711,-8.3672 0,-52.293 -29.605,-97.754 -72.91,-120.66 h 17.438 c 22.059,0 39.996,-17.941 39.996,-39.996 l 0.004,-117.36 c 0,-22.059 -17.941,-39.996 -39.996,-39.996 h -73.109 v -14.73 c 12.438,-3.4727 21.641,-14.785 21.641,-28.309 0,-16.27 -13.242,-29.512 -29.512,-29.512 -16.27,0 -29.512,13.242 -29.512,29.512 0,13.523 9.2031,24.836 21.641,28.309 v 14.73 h -73.102 c -22.059,0 -39.996,17.941 -39.996,39.996 v 117.36 c 0,22.059 17.941,39.996 39.996,39.996 h 17.469 c -43.32,22.926 -72.945,68.508 -72.945,121.15 z M 386.23,230.05 c 0,-7.5898 6.1719,-13.77 13.77,-13.77 7.5981,0 13.77,6.1719 13.77,13.77 -0.004,7.5938 -6.1836,13.766 -13.77,13.766 -7.5898,0 -13.77,-6.1719 -13.77,-13.766 z M 319.027,454.7 c -13.375,0 -24.254,-10.879 -24.254,-24.254 v -117.36 c 0,-13.375 10.879,-24.254 24.254,-24.254 h 161.94 c 13.375,0 24.254,10.879 24.254,24.254 v 117.36 c 0,13.375 -10.879,24.254 -24.254,24.254 h -79.984 c -0.33203,0 -0.65234,-0.0469 -0.98438,-0.0469 -0.33204,0 -0.65234,0.0469 -0.98438,0.0469 z m 79.949,15.746 h 2.0469 c 63.605,0.53516 115.66,50.484 119.46,113.28 h -240.96 c 3.8008,-62.785 55.84,-112.73 119.46,-113.28 z"
             id="path3153" /><path
             d="m 357.15,546.42 h 85.703 c 4.3438,0 7.8711,-3.5273 7.8711,-7.8711 0,-4.3438 -3.5273,-7.8711 -7.8711,-7.8711 H 357.15 c -4.3438,0 -7.8711,3.5273 -7.8711,7.8711 -0.004,4.3438 3.5156,7.8711 7.8711,7.8711 z"
             id="path3155" /></g></g><text
         xml:space="preserve"
         style="font-style:normal;font-variant:normal;font-weight:normal;font-stretch:normal;font-size:6.35px;font-family:serif;-inkscape-font-specification:serif;fill:none;stroke:#000000;stroke-width:0.705556"
         x="44.492374"
         y="39.172428"
         id="text290-6-6-6-2-6"><tspan
           sodipodi:role="line"
           id="tspan288-7-7-2-7-1"
           style="fill:#000000;fill-opacity:1;stroke:none;stroke-width:0.705556"
           x="44.492374"
           y="39.172428">CI</tspan></text></g><g
       id="g5939"
       transform="translate(-46.742502,4.350082)"><g
         style="fill:#000000"
         id="g3296"
         transform="matrix(0.04287306,0,0,0.04287306,82.231337,-5.4551263)"><g
           id="g3279"><path
             d="m 534.21,290.84 c 0,-9.2734 7.5195,-16.793 16.789,-16.793 9.2734,0 16.789,7.5195 16.789,16.793 0,9.2734 -7.5156,16.793 -16.789,16.793 -9.2695,0 -16.789,-7.5195 -16.789,-16.793 z"
             id="path3263" /><path
             d="m 509.04,274.05 c -9.2695,0 -16.785,7.5195 -16.785,16.793 0,9.2734 7.5156,16.793 16.785,16.793 9.2734,0 16.789,-7.5195 16.789,-16.793 0,-9.2734 -7.5156,-16.793 -16.789,-16.793 z"
             id="path3265" /><path
             d="m 450.28,290.84 c 0,-9.2734 7.5156,-16.793 16.785,-16.793 9.2734,0 16.789,7.5195 16.789,16.793 0,9.2734 -7.5156,16.793 -16.789,16.793 -9.2695,0 -16.785,-7.5195 -16.785,-16.793 z"
             id="path3267" /><path
             d="m 256.66,429.68 c 0.008,-23.188 19.168,-42.008 42.344,-42.043 23.18,-0.0312 42.32,18.738 42.312,41.926 l -0.0117,29.41 c -0.0117,23.188 -19.168,42.012 -42.344,42.043 -23.18,0.0312 -42.32,-18.738 -42.312,-41.926 z m 51.082,-0.0703 -0.0117,29.41 c -0.004,4.2656 -3.75,8.4023 -8.7578,8.4102 -5.0078,0.008 -8.75,-4.1211 -8.75,-8.3867 l 0.0117,-29.41 c 0.004,-4.2656 3.7461,-8.3984 8.7578,-8.4062 5.0078,-0.008 8.75,4.1172 8.75,8.3828 z"
             fill-rule="evenodd"
             id="path3269" /><path
             d="m 374.74,387.4 c 9.2695,0 16.785,7.5195 16.785,16.793 v 79.77 c 0,9.2773 -7.5156,16.797 -16.785,16.797 -9.2734,0 -16.789,-7.5195 -16.789,-16.797 v -79.77 c 0,-9.2734 7.5156,-16.793 16.789,-16.793 z"
             id="path3271" /><path
             d="m 407.74,429.68 c 0.008,-23.188 19.164,-42.008 42.344,-42.043 23.18,-0.0312 42.32,18.738 42.312,41.926 l -0.0117,29.41 c -0.0117,23.188 -19.168,42.012 -42.344,42.043 -23.18,0.0312 -42.324,-18.738 -42.312,-41.926 z m 51.082,-0.0703 -0.0117,29.41 c -0.004,4.2656 -3.75,8.4023 -8.7578,8.4102 -5.0078,0.008 -8.75,-4.1211 -8.75,-8.3867 l 0.0117,-29.41 c 0,-4.2656 3.7461,-8.3984 8.7578,-8.4062 5.0078,-0.008 8.75,4.1172 8.75,8.3828 z"
             fill-rule="evenodd"
             id="path3273" /><path
             d="m 525.82,387.4 c 9.2695,0 16.785,7.5195 16.785,16.793 v 79.77 c 0,9.2773 -7.5156,16.797 -16.785,16.797 -9.2734,0 -16.789,-7.5195 -16.789,-16.797 v -79.77 c 0,-9.2734 7.5156,-16.793 16.789,-16.793 z"
             id="path3275" /><path
             d="m 211.11,232.56 c -11.59,0.0156 -20.988,9.4258 -20.992,21.02 -0.043,102.88 0.0117,198.79 -0.0312,304.82 -0.004,11.594 9.3867,20.98 20.977,20.965 l 377.87,-0.51953 c 11.59,-0.0195 20.988,-9.4297 20.992,-21.023 0.043,-101.57 -0.20312,-203.29 -0.16406,-304.77 0.008,-11.594 -9.7695,-21.031 -21.359,-21.016 z m 12.578,33.57 -0.0195,50.578 352.11,-0.48828 0.41016,-50.574 z m -0.0195,279.62 0.0742,-195.46 352.69,-0.48828 -0.082,195.46 z"
             fill-rule="evenodd"
             id="path3277" /></g></g><text
         xml:space="preserve"
         style="font-style:normal;font-variant:normal;font-weight:normal;font-stretch:normal;font-size:6.35px;font-family:serif;-inkscape-font-specification:serif;fill:none;stroke:#000000;stroke-width:0.705556"
         x="61.964901"
         y="12.581023"
         id="text290-6-6-6-0"><tspan
           sodipodi:role="line"
           id="tspan288-7-7-2-6"
           style="fill:#000000;fill-opacity:1;stroke:none;stroke-width:0.705556"
           x="61.964901"
           y="12.581023">Binary</tspan></text></g><g
       id="g3592"
       transform="translate(60.778202,-50.437906)"><g
         style="fill:#000000"
         id="g3553"
         transform="matrix(0.04962162,0,0,0.04962162,37.248269,255.85164)"><g
           id="g3538"><path
             d="m 254.75,606.56 h 290.5 c 6.6797,0 12.094,-5.4102 12.094,-12.09 v -63.48 c 7.0273,-2.5352 13.105,-7.1758 17.406,-13.285 4.2969,-6.1133 6.6133,-13.398 6.625,-20.871 v -145.25 c -0.0156,-7.5 -2.3438,-14.812 -6.6719,-20.934 -4.332,-6.125 -10.445,-10.762 -17.512,-13.273 v -39.199 c -0.0195,-3.1992 -1.3047,-6.2578 -3.5781,-8.5117 l -72.445,-72.699 c -2.2773,-2.2617 -5.3594,-3.5312 -8.5664,-3.5273 h -217.85 c -6.6758,0 -12.09,5.4141 -12.09,12.09 v 111.85 c -7.043,2.5312 -13.129,7.1758 -17.434,13.301 -4.3008,6.1211 -6.6055,13.422 -6.5977,20.906 v 145.25 c 0.004,7.4727 2.3125,14.766 6.6133,20.879 4.3008,6.1094 10.383,10.75 17.418,13.277 v 63.48 c 0,6.6797 5.4141,12.09 12.09,12.09 z m 278.41,-24.184 -266.32,0.004 v -49.223 h 266.32 v 49.223 z m -48.418,-347.63 31.137,31.34 H 484.691 V 234.75 Z m -217.9,-17.176 h 193.62 v 60.457 c 0,6.6758 5.4141,12.09 12.09,12.09 h 60.457 v 25.191 h -266.16 z m -24.234,134.01 h 0.004 c 0.0273,-6.668 5.4258,-12.062 12.09,-12.09 h 290.55 c 6.668,0.0273 12.066,5.4219 12.094,12.09 v 145.25 c -0.0273,6.6641 -5.4258,12.062 -12.094,12.09 h -290.5 c -6.668,-0.0273 -12.062,-5.4258 -12.09,-12.09 z"
             fill-rule="evenodd"
             id="path3526" /><path
             d="m 279.09,436.32 c 6.6641,0.0273 12.062,5.4258 12.09,12.09 0.0117,9.625 3.8477,18.852 10.656,25.652 6.8125,6.8008 16.043,10.621 25.668,10.621 6.6797,0 12.09,-5.4141 12.09,-12.09 0,-6.6797 -5.4102,-12.09 -12.09,-12.09 -6.668,-0.0312 -12.062,-5.4258 -12.09,-12.094 0.004,-8.9453 -3.3008,-17.574 -9.2695,-24.234 5.9102,-6.6602 9.1602,-15.273 9.1172,-24.18 0.0273,-6.668 5.4258,-12.066 12.09,-12.094 6.6797,0 12.094,-5.4141 12.094,-12.09 0,-6.6797 -5.4141,-12.094 -12.094,-12.094 -9.6133,0.0156 -18.832,3.8398 -25.633,10.641 -6.8008,6.8008 -10.625,16.02 -10.641,25.637 -0.0273,6.625 -5.3633,12.008 -11.988,12.09 -6.6953,0 -12.117,5.4258 -12.117,12.117 0,6.6914 5.4219,12.117 12.117,12.117 z"
             fill-rule="evenodd"
             id="path3528" /><path
             d="m 472.6,387.91 c 6.668,0.0273 12.062,5.4258 12.09,12.094 0,8.9258 3.3047,17.539 9.2734,24.18 -5.9766,6.6562 -9.2812,15.289 -9.2734,24.234 -0.0273,6.668 -5.4219,12.062 -12.09,12.094 -6.6797,0 -12.09,5.4102 -12.09,12.09 0,6.6758 5.4102,12.09 12.09,12.09 9.6211,-0.0117 18.844,-3.8359 25.652,-10.633 6.8086,-6.8008 10.645,-16.02 10.672,-25.641 0,-6.6758 5.4141,-12.09 12.09,-12.09 6.6953,0 12.117,-5.4258 12.117,-12.117 0,-6.6914 -5.4219,-12.117 -12.117,-12.117 -6.6758,0 -12.09,-5.4141 -12.09,-12.09 -0.0273,-9.6211 -3.8633,-18.84 -10.672,-25.641 -6.8086,-6.7969 -16.031,-10.621 -25.652,-10.637 -6.6797,0 -12.09,5.4141 -12.09,12.094 0,6.6758 5.4102,12.09 12.09,12.09 z"
             fill-rule="evenodd"
             id="path3530" /><path
             d="m 363.68,424.23 c 0,6.6797 -5.4141,12.094 -12.094,12.094 -6.6758,0 -12.09,-5.4141 -12.09,-12.094 0,-6.6758 5.4141,-12.09 12.09,-12.09 6.6797,0 12.094,5.4141 12.094,12.09"
             id="path3532" /><path
             d="m 460.51,424.23 c 0,6.6797 -5.4141,12.094 -12.094,12.094 -6.6758,0 -12.09,-5.4141 -12.09,-12.094 0,-6.6758 5.4141,-12.09 12.09,-12.09 6.6797,0 12.094,5.4141 12.094,12.09"
             id="path3534" /><path
             d="m 412.09,424.23 c 0,6.6797 -5.4141,12.094 -12.09,12.094 -6.6797,0 -12.094,-5.4141 -12.094,-12.094 0,-6.6758 5.4141,-12.09 12.094,-12.09 6.6758,0 12.09,5.4141 12.09,12.09"
             id="path3536" /></g></g><text
         xml:space="preserve"
         style="font-style:normal;font-variant:normal;font-weight:normal;font-stretch:normal;font-size:6.35px;font-family:serif;-inkscape-font-specification:serif;fill:none;stroke:#000000;stroke-width:0.705556"
         x="48.178204"
         y="295.52036"
         id="text290-6-6-6-0-3"><tspan
           sodipodi:role="line"
           id="tspan288-7-7-2-6-2"
           style="fill:#000000;fill-opacity:1;stroke:none;stroke-width:0.705556"
           x="48.178204"
           y="295.52036">Source</tspan></text></g><g
       id="g3694"
       transform="translate(8.1328409,-7.1935986)"><g
         style="fill:#000000"
         id="g3656"
         transform="matrix(0.04181819,0,0,0.04181819,-25.874122,122.99871)"><g
           id="g3645"><path
             d="m 198.48,513.36 173.18,51.957 h 4.7227 c 1.5742,0 3.1484,0 3.9375,-0.78906 l 61.402,-18.105 c 15.742,29.914 47.23,50.383 83.445,50.383 51.957,0 94.465,-42.508 94.465,-94.465 0,-37.785 -22.828,-70.848 -55.105,-85.805 l -0.004,-126.74 v -0.78906 -2.3633 -0.78906 c 0,-0.78906 -0.78906,-1.5742 -0.78906,-2.3633 v -0.78906 c -0.78906,-0.78906 -0.78906,-1.5742 -1.5742,-3.1484 0,0 -0.78906,-0.78906 -0.78906,-0.78906 -0.78906,-0.78906 -0.78906,-1.5742 -1.5742,-1.5742 h -0.78906 c -0.78906,-0.78906 -1.5742,-0.78906 -1.5742,-0.78906 -0.78906,0 -0.78906,0 -1.5742,-0.78906 h -0.78906 l -173.18,-55.105 c -3.1484,-0.78906 -6.2969,-0.78906 -9.4453,0 l -173.18,55.105 h -0.78906 c -0.78906,0 -0.78906,0 -1.5742,0.78906 -0.78906,0 -1.5742,0.78906 -1.5742,0.78906 h -0.78906 c -0.78906,0.78906 -1.5742,0.78906 -1.5742,1.5742 0,0 -0.78906,0.78906 -0.78906,0.78906 -0.78906,0.78906 -1.5742,1.5742 -1.5742,3.1484 v 0.78906 c 0,0.78906 -0.78906,1.5742 -0.78906,2.3633 v 0.78906 2.3633 0.78906 207.82 c -2.3516,7.0859 2.3711,13.383 8.6719,15.746 z m 20.465,-202.31 55.105,16.531 v 33.062 c 0,8.6602 7.0859,15.742 15.742,15.742 8.6602,0 15.742,-7.0859 15.742,-15.742 v -23.617 l 55.105,16.531 v 175.55 l -141.7,-43.293 z m 277.1,-22.039 -119.66,36.211 -27.551,-7.8711 109.42,-39.359 z m 92.887,213.33 c 0,34.637 -28.34,62.977 -62.977,62.977 -34.637,0 -62.977,-28.34 -62.977,-62.977 0,-34.637 28.34,-62.977 62.977,-62.977 34.637,0 62.977,28.34 62.977,62.977 z m -62.977,-94.465 c -51.957,0 -94.465,42.508 -94.465,94.465 0,4.7227 0.78906,9.4453 0.78906,14.168 l -40.148,11.809 v -174.76 l 141.7,-42.508 v 97.613 c -2.3594,-0.78906 -5.5078,-0.78906 -7.8711,-0.78906 z m -149.57,-156.65 33.062,10.234 -111.78,40.145 -40.934,-12.594 z"
             id="path3641" /><path
             d="m 513.36,491.31 c -6.2969,-6.2969 -15.742,-6.2969 -22.043,0 -6.2969,6.2969 -6.2969,15.742 0,22.043 l 15.742,15.742 c 3.1523,3.1523 7.0898,4.7266 11.023,4.7266 3.9375,0 7.8711,-1.5742 11.02,-4.7227 l 31.488,-31.488 c 6.2969,-6.2969 6.2969,-15.742 0,-22.043 -6.2969,-6.2969 -15.742,-6.2969 -22.043,0 l -20.465,20.469 z"
             id="path3643" /></g></g><text
         xml:space="preserve"
         style="font-style:normal;font-variant:normal;font-weight:normal;font-stretch:normal;font-size:6.35px;font-family:serif;-inkscape-font-specification:serif;fill:none;stroke:#000000;stroke-width:0.705556"
         x="-9.0149345"
         y="157.56877"
         id="text290-6-6-6-0-0"><tspan
           sodipodi:role="line"
           id="tspan288-7-7-2-6-6"
           style="text-align:center;text-anchor:middle;fill:#000000;fill-opacity:1;stroke:none;stroke-width:0.705556"
           x="-9.0149345"
           y="157.56877">Released</tspan><tspan
           sodipodi:role="line"
           style="text-align:center;text-anchor:middle;fill:#000000;fill-opacity:1;stroke:none;stroke-width:0.705556"
           x="-9.0149345"
           y="165.50627"
           id="tspan3685">source</tspan></text></g><g
       id="g3743"
       transform="translate(-255.54558,-0.44103272)"><rect
         style="fill:none;stroke:#000000;stroke-width:0.705556"
         id="rect234-3-3-5-0-2-0"
         width="72.396271"
         height="26.707844"
         x="105.13684"
         y="215.80635" /><text
         xml:space="preserve"
         style="font-style:normal;font-variant:normal;font-weight:normal;font-stretch:normal;font-size:6.35px;font-family:serif;-inkscape-font-specification:serif;text-align:center;text-anchor:middle;fill:none;stroke:#000000;stroke-width:0.705556"
         x="129.16235"
         y="226.60849"
         id="text290-6-6-6-9-6-2"><tspan
           sodipodi:role="line"
           style="text-align:center;text-anchor:middle;fill:#000000;fill-opacity:1;stroke:none;stroke-width:0.705556"
           x="129.16235"
           y="226.60849"
           id="tspan1231-8-7">Documentation</tspan><tspan
           sodipodi:role="line"
           style="text-align:center;text-anchor:middle;fill:#000000;fill-opacity:1;stroke:none;stroke-width:0.705556"
           x="129.16235"
           y="234.54599"
           id="tspan1426">generator</tspan></text><g
         style="fill:#000000"
         id="g3729"
         transform="matrix(0.05374425,0,0,0.05374425,142.82772,207.6629)"><path
           d="m 555.12,292.11 -94.465,-94.465 c -1.4688,-1.4805 -3.4648,-2.3125 -5.5508,-2.3242 h -204.67 c -4.3477,0 -7.8711,3.5273 -7.8711,7.875 v 393.6 c 0,2.0859 0.82812,4.0898 2.3047,5.5664 1.4766,1.4727 3.4805,2.3047 5.5664,2.3047 h 299.14 c 2.0898,0 4.0898,-0.83203 5.5664,-2.3047 1.4766,-1.4766 2.3047,-3.4805 2.3047,-5.5664 v -299.14 c -0.008,-2.0859 -0.84375,-4.082 -2.3203,-5.5508 z m -92.141,-69.906 67.578,67.582 h -67.578 z m -118.08,288 c -6.2617,0 -12.27,-2.4883 -16.699,-6.918 -4.4297,-4.4297 -6.918,-10.434 -6.918,-16.699 0,-6.2617 2.4883,-12.27 6.918,-16.699 4.4297,-4.4297 10.438,-6.9141 16.699,-6.9141 6.261,0 12.27,2.4844 16.699,6.9141 4.429,4.4297 6.918,10.438 6.918,16.699 0,6.2656 -2.4883,12.27 -6.918,16.699 -4.4297,4.4297 -10.438,6.918 -16.699,6.918 z m 156.97,78.719 -38.887,-42.43 v -76.438 c 12.855,-2.625 23.559,-11.484 28.539,-23.621 4.9805,-12.141 3.5859,-25.965 -3.7227,-36.863 -7.3086,-10.898 -19.566,-17.441 -32.691,-17.441 -13.121,0 -25.379,6.543 -32.688,17.441 -7.3086,10.898 -8.707,24.723 -3.7266,36.863 4.9805,12.137 15.688,20.996 28.543,23.621 v 79.508 c 0.008,1.9688 0.75,3.8672 2.0859,5.3125 l 31.172,34.047 h -127.72 v -63.762 c 12.859,-2.625 23.562,-11.484 28.543,-23.625 4.9805,-12.141 3.5859,-25.965 -3.7227,-36.863 -7.3086,-10.898 -19.57,-17.438 -32.691,-17.438 -13.121,0 -25.383,6.5391 -32.691,17.438 -7.3086,10.898 -8.7031,24.723 -3.7227,36.863 4.9805,12.141 15.684,21 28.543,23.625 v 63.762 h -78.723 v -377.86 h 51.84 l 42.625,42.625 v 76.242 c -12.855,2.625 -23.559,11.484 -28.543,23.625 -4.9805,12.141 -3.582,25.965 3.7266,36.863 7.3086,10.898 19.566,17.438 32.688,17.438 13.125,0 25.383,-6.5391 32.691,-17.438 7.3086,-10.898 8.707,-24.723 3.7227,-36.863 -4.9805,-12.141 -15.684,-21 -28.539,-23.625 v -79.508 c -0.0117,-2.0859 -0.84375,-4.0781 -2.3242,-5.5508 l -33.77,-33.809 h 114.81 v 86.594 c 0,2.0859 0.82812,4.0898 2.3047,5.5664 1.4766,1.4727 3.4805,2.3047 5.5664,2.3047 h 86.594 v 283.39 z m -46.762,-133.82 c -6.2617,0 -12.27,-2.4883 -16.699,-6.9141 -4.4258,-4.4297 -6.9141,-10.438 -6.9141,-16.699 0,-6.2656 2.4883,-12.273 6.9141,-16.699 4.4297,-4.4297 10.438,-6.918 16.699,-6.918 6.2656,0 12.27,2.4883 16.699,6.918 4.4297,4.4258 6.918,10.434 6.918,16.699 0,6.2617 -2.4883,12.27 -6.918,16.699 -4.4297,4.4258 -10.434,6.9141 -16.699,6.9141 z m -94.465,-110.21 c 6.2656,0 12.273,2.4883 16.699,6.918 4.4297,4.4258 6.918,10.434 6.918,16.699 0,6.2617 -2.4883,12.27 -6.918,16.699 -4.4258,4.4258 -10.434,6.9141 -16.699,6.9141 -6.2617,0 -12.27,-2.4883 -16.699,-6.9141 -4.4258,-4.4297 -6.9141,-10.438 -6.9141,-16.699 0,-6.2656 2.4883,-12.273 6.9141,-16.699 4.4297,-4.4297 10.438,-6.918 16.699,-6.918 z"
           id="path3720" /></g></g><g
       id="g3964"
       transform="translate(-264.62989,0.87747533)"><rect
         style="fill:none;stroke:#000000;stroke-width:0.705556"
         id="rect234-3-3-55"
         width="72.396271"
         height="26.707844"
         x="114.22115"
         y="175.97981" /><text
         xml:space="preserve"
         style="font-style:normal;font-variant:normal;font-weight:normal;font-stretch:normal;font-size:6.35px;font-family:serif;-inkscape-font-specification:serif;text-align:center;text-anchor:middle;fill:none;stroke:#000000;stroke-width:0.705556"
         x="136.00102"
         y="187.298"
         id="text290-6-6-4"><tspan
           sodipodi:role="line"
           id="tspan288-7-7-7"
           style="text-align:center;text-anchor:middle;fill:#000000;fill-opacity:1;stroke:none;stroke-width:0.705556"
           x="136.00102"
           y="187.298">Documentation</tspan><tspan
           sodipodi:role="line"
           style="text-align:center;text-anchor:middle;fill:#000000;fill-opacity:1;stroke:none;stroke-width:0.705556"
           x="136.00102"
           y="195.2355"
           id="tspan2576-6">distribution</tspan></text><g
         style="fill:#000000"
         id="g3930"
         transform="matrix(0.04082393,0,0,0.04082393,156.45593,173.00253)"><g
           id="g3912"><path
             d="M 549.57,456.61 V 250.43 c -0.008,-2.0859 -0.83594,-4.0859 -2.3047,-5.5664 l -70.848,-70.848 c -1.4805,-1.4688 -3.4805,-2.2969 -5.5664,-2.3047 h -184.39 c -9.5547,0.008 -18.711,3.8086 -25.465,10.562 -6.7578,6.7539 -10.555,15.914 -10.566,25.465 v 176.52 h -49.988 c -5.5312,0.008 -10.832,2.207 -14.742,6.1172 -3.9102,3.9102 -6.1094,9.2148 -6.1172,14.746 v 84.23 c 0.004,5.5312 2.2031,10.832 6.1133,14.746 3.9141,3.9102 9.2148,6.1094 14.746,6.1133 h 49.988 v 19.074 c 0.0117,9.5508 3.8125,18.707 10.566,25.465 6.7539,6.7539 15.914,10.551 25.465,10.566 h 164.12 c 5.6211,19.906 18.188,37.145 35.422,48.594 17.234,11.445 37.996,16.344 58.527,13.805 20.531,-2.5391 39.477,-12.34 53.406,-27.641 13.93,-15.297 21.922,-35.074 22.527,-55.754 0.60938,-20.68 -6.207,-40.891 -19.211,-56.98 -13.008,-16.09 -31.344,-26.992 -51.691,-30.73 z m -70.848,-258.02 43.973,43.973 h -43.973 z m -283.39,290.77 v -84.238 c 0.008,-2.8242 2.293,-5.1133 5.1172,-5.1172 h 210.18 c 2.8242,0.004 5.1133,2.293 5.1172,5.1172 v 84.23 c -0.004,2.8203 -2.293,5.1055 -5.1172,5.1055 h -210.18 c -2.8203,0 -5.1055,-2.2812 -5.1172,-5.0977 z m 91.137,60.211 c -5.3789,-0.004 -10.535,-2.1445 -14.34,-5.9492 -3.8008,-3.8008 -5.9414,-8.957 -5.9453,-14.336 v -19.074 h 144.45 c 5.5312,-0.004 10.832,-2.2031 14.746,-6.1133 3.9102,-3.9102 6.1094,-9.2109 6.1172,-14.738 v -84.238 c -0.008,-5.5312 -2.207,-10.836 -6.1172,-14.746 -3.9141,-3.9102 -9.2148,-6.1094 -14.746,-6.1172 h -144.45 v -176.52 c 0.004,-5.375 2.1445,-10.531 5.9453,-14.336 3.8047,-3.8047 8.9609,-5.9414 14.34,-5.9492 h 176.52 v 62.977 c 0,2.0898 0.82813,4.0898 2.3047,5.5664 1.4766,1.4766 3.4766,2.3047 5.5664,2.3047 h 62.977 v 196.8 c -22.957,0.0273 -44.969,9.1602 -61.203,25.395 -16.23,16.23 -25.363,38.242 -25.391,61.199 0,2.6602 0.16406,5.2734 0.40234,7.8711 z m 247.36,62.977 c -18.793,0 -36.812,-7.4648 -50.098,-20.75 -13.289,-13.289 -20.75,-31.309 -20.75,-50.098 0,-18.789 7.4609,-36.812 20.75,-50.098 13.285,-13.285 31.305,-20.75 50.098,-20.75 18.789,0 36.809,7.4648 50.098,20.75 13.285,13.285 20.75,31.309 20.75,50.098 -0.0234,18.785 -7.4922,36.793 -20.773,50.074 -13.285,13.281 -31.293,20.754 -50.074,20.773 z"
             id="path3894" /><path
             d="m 305.54,274.05 h 110.21 c 4.3477,0 7.8711,-3.5234 7.8711,-7.8711 0,-4.3477 -3.5234,-7.875 -7.8711,-7.875 H 305.54 c -4.3477,0 -7.8711,3.5273 -7.8711,7.875 0,4.3477 3.5234,7.8711 7.8711,7.8711 z"
             id="path3896" /><path
             d="m 305.54,234.69 h 110.21 c 4.3477,0 7.8711,-3.5273 7.8711,-7.875 0,-4.3477 -3.5234,-7.8711 -7.8711,-7.8711 H 305.54 c -4.3477,0 -7.8711,3.5234 -7.8711,7.8711 0,4.3477 3.5234,7.875 7.8711,7.875 z"
             id="path3898" /><path
             d="m 305.54,313.41 h 188.93 c 4.3477,0 7.875,-3.5234 7.875,-7.8711 0,-4.3477 -3.5273,-7.8711 -7.875,-7.8711 H 305.54 c -4.3477,0 -7.8711,3.5234 -7.8711,7.8711 0,4.3477 3.5234,7.8711 7.8711,7.8711 z"
             id="path3900" /><path
             d="m 502.34,344.89 c 0,-2.0898 -0.83203,-4.0898 -2.3086,-5.5664 -1.4727,-1.4766 -3.4766,-2.3047 -5.5664,-2.3047 h -188.93 c -4.3477,0 -7.8711,3.5234 -7.8711,7.8711 0,4.3477 3.5234,7.8711 7.8711,7.8711 h 188.93 c 2.0898,0 4.0938,-0.82812 5.5664,-2.3047 1.4766,-1.4766 2.3086,-3.4805 2.3086,-5.5664 z"
             id="path3902" /><path
             d="m 234.69,415.74 h -15.746 c -4.3477,0 -7.8711,3.5234 -7.8711,7.8711 v 47.234 c 0,2.0859 0.82813,4.0898 2.3047,5.5664 1.4766,1.4766 3.4805,2.3047 5.5664,2.3047 h 15.746 c 11.25,0 21.645,-6 27.27,-15.742 5.625,-9.7461 5.625,-21.746 0,-31.488 -5.625,-9.7422 -16.02,-15.746 -27.27,-15.746 z m 0,47.23 -7.875,0.004 v -31.488 h 7.875 c 5.625,0 10.82,3 13.633,7.8711 2.813,4.8711 2.8125,10.871 0,15.742 -2.8125,4.8711 -8.0078,7.875 -13.633,7.875 z"
             id="path3904" /><path
             d="m 305.54,478.72 c 8.3516,0 16.359,-3.3164 22.266,-9.2227 5.9023,-5.9062 9.2227,-13.914 9.2227,-22.266 0,-8.3516 -3.3203,-16.359 -9.2227,-22.266 -5.9062,-5.9062 -13.914,-9.2227 -22.266,-9.2227 -8.3516,0 -16.359,3.3164 -22.266,9.2227 -5.907,5.9063 -9.2227,13.914 -9.2227,22.266 0,8.3516 3.3164,16.359 9.2227,22.266 5.9063,5.907 13.914,9.2227 22.266,9.2227 z m 0,-47.23 c 4.1758,0 8.1797,1.6562 11.133,4.6094 2.9533,2.9532 4.6094,6.957 4.6094,11.133 0,4.176 -1.6562,8.1797 -4.6094,11.133 -2.9532,2.9533 -6.957,4.6133 -11.133,4.6133 -4.1758,0 -8.1797,-1.6602 -11.133,-4.6133 -2.9533,-2.9531 -4.6133,-6.957 -4.6133,-11.133 0,-4.176 1.6602,-8.1797 4.6133,-11.133 2.9531,-2.9533 6.957,-4.6094 11.133,-4.6094 z"
             id="path3906" /><path
             d="m 376.38,478.72 c 7.7461,0.004 15.223,-2.8516 20.996,-8.0234 1.5742,-1.3828 2.5352,-3.3438 2.6602,-5.4414 0.125,-2.0976 -0.59375,-4.1562 -1.9922,-5.7227 -1.4023,-1.5625 -3.3711,-2.5039 -5.4688,-2.6094 -2.0977,-0.1055 -4.1523,0.62891 -5.7031,2.0469 -3.0352,2.7148 -7.0078,4.1484 -11.078,3.9961 -4.0702,-0.1523 -7.9258,-1.875 -10.754,-4.8125 -2.8242,-2.9336 -4.4062,-6.8477 -4.4062,-10.922 0,-4.0743 1.582,-7.9883 4.4062,-10.922 2.8281,-2.9336 6.6836,-4.6602 10.754,-4.8125 4.0703,-0.14844 8.043,1.2812 11.078,3.9961 1.5508,1.418 3.6055,2.1523 5.7031,2.0469 2.0977,-0.10547 4.0664,-1.0469 5.4688,-2.6094 1.3984,-1.5664 2.1172,-3.625 1.9922,-5.7227 -0.125,-2.0977 -1.0859,-4.0547 -2.6602,-5.4414 -7.7227,-6.9102 -18.352,-9.5781 -28.422,-7.1367 -10.07,2.4453 -18.293,9.6836 -21.992,19.363 -3.6953,9.6797 -2.3945,20.559 3.4805,29.094 5.875,8.5352 15.574,13.633 25.938,13.633 z"
             id="path3908" /><path
             d="m 539.39,496.77 c -3.0742,-3.0742 -8.0547,-3.0742 -11.129,0 l -31.488,31.488 c -2.9844,3.0898 -2.9414,8 0.0937,11.035 3.0391,3.0352 7.9492,3.0781 11.035,0.0937 l 18.051,-18.051 v 59.719 c 0,4.3477 3.5273,7.8711 7.875,7.8711 4.3477,0 7.8711,-3.5234 7.8711,-7.8711 v -59.719 l 18.051,18.051 c 3.0898,2.9844 7.9961,2.9414 11.035,-0.0937 3.0352,-3.0352 3.0781,-7.9453 0.0937,-11.035 z"
             id="path3910" /></g></g></g><path
       style="fill:none;stroke:#000000;stroke-width:0.705556;stroke-dasharray:none;stroke-opacity:1;marker-end:url(#Arrow4)"
       d="M 35.726475,215.01254 V 120.88417"
       id="path396"
       sodipodi:nodetypes="cc" /><path
       style="fill:none;stroke:#000000;stroke-width:0.705556;stroke-dasharray:none;stroke-opacity:1;marker-end:url(#Arrow4-84)"
       d="M -0.82938429,176.50451 V 161.91113"
       id="path396-1"
       sodipodi:nodetypes="cc" /><path
       style="fill:none;stroke:#000000;stroke-width:0.705556;stroke-dasharray:none;stroke-opacity:1;marker-end:url(#Arrow4-8)"
       d="M 71.313603,215.01254 V 120.88417"
       id="path396-8"
       sodipodi:nodetypes="cc" /><path
       style="fill:none;stroke:#000000;stroke-width:0.705556;stroke-dasharray:none;stroke-opacity:1;marker-end:url(#Arrow4-84-4)"
       d="m -0.82938424,122.13161 v -6.79747"
       id="path396-1-2"
       sodipodi:nodetypes="cc" /><path
       style="fill:none;stroke:#000000;stroke-width:0.705556;stroke-dasharray:none;stroke-opacity:1;marker-end:url(#Arrow4-84-4-9)"
       d="m -114.2106,213.21674 v -6.79747"
       id="path396-1-2-81"
       sodipodi:nodetypes="cc" /><path
       style="fill:none;stroke:#000000;stroke-width:0.705556;stroke-dasharray:none;stroke-opacity:1;marker-end:url(#Arrow4-84-4-7)"
       d="m -114.59986,138.8984 h 6.79747"
       id="path396-1-2-3"
       sodipodi:nodetypes="cc" /><path
       style="fill:none;stroke:#000000;stroke-width:0.705556;stroke-dasharray:none;stroke-opacity:1;marker-end:url(#Arrow4-84-4-0)"
       d="M -0.82938429,74.92443 V 68.12696"
       id="path396-1-2-8"
       sodipodi:nodetypes="cc" /><path
       style="fill:none;stroke:#000000;stroke-width:0.705556;stroke-dasharray:none;stroke-opacity:1;marker-end:url(#Arrow4-84-4-0-9)"
       d="M 35.726475,74.92443 V 68.12696"
       id="path396-1-2-8-6"
       sodipodi:nodetypes="cc" /><path
       style="fill:none;stroke:#000000;stroke-width:0.705556;stroke-dasharray:none;stroke-opacity:1;marker-end:url(#Arrow4-84-4-0-6)"
       d="M 71.313603,74.92443 V 68.12696"
       id="path396-1-2-8-9"
       sodipodi:nodetypes="cc" /><path
       style="fill:none;stroke:#000000;stroke-width:0.705556;stroke-dasharray:none;stroke-opacity:1;marker-end:url(#Arrow4-84-4-0-9-5)"
       d="M 35.726475,32.85568 V 26.05821"
       id="path396-1-2-8-6-7"
       sodipodi:nodetypes="cc" /><path
       style="fill:none;stroke:#000000;stroke-width:0.705556;stroke-dasharray:none;stroke-opacity:1;marker-end:url(#Arrow4-84-4-0-6-4)"
       d="M 71.313603,32.85568 V 26.05821"
       id="path396-1-2-8-9-1"
       sodipodi:nodetypes="cc" /><path
       style="fill:none;stroke:#000000;stroke-width:0.705556;stroke-dasharray:none;stroke-opacity:1;marker-end:url(#Arrow4-84-4-0-9-5-7)"
       d="m 35.726475,5.6452895 v -6.79747"
       id="path396-1-2-8-6-7-2"
       sodipodi:nodetypes="cc" /><path
       style="fill:none;stroke:#000000;stroke-width:0.705556;stroke-dasharray:none;stroke-opacity:1;marker-end:url(#Arrow4-84-4-0-6-4-7)"
       d="m 71.313603,5.6452895 v -6.79747"
       id="path396-1-2-8-9-1-6"
       sodipodi:nodetypes="cc" /><path
       style="fill:none;stroke:#000000;stroke-width:0.705556;stroke-dasharray:none;stroke-opacity:1;marker-end:url(#Arrow4-84-1)"
       d="M -26.542712,90.372304 H -41.136088"
       id="path396-1-6"
       sodipodi:nodetypes="cc" /><path
       style="fill:none;stroke:#000000;stroke-width:0.705556;stroke-dasharray:none;stroke-opacity:1;marker-end:url(#Arrow4-84-1-2)"
       d="M 105.27404,228.71924 H 90.680663"
       id="path396-1-6-3"
       sodipodi:nodetypes="cc" /><path
       style="fill:none;stroke:#000000;stroke-width:0.705556;stroke-dasharray:none;stroke-opacity:1;marker-end:url(#Arrow4-84-4-0-1)"
       d="M -67.182898,74.92443 V 68.12696"
       id="path396-1-2-8-94"
       sodipodi:nodetypes="cc" /><path
       style="fill:none;stroke:#000000;stroke-width:0.705556;stroke-dasharray:none;stroke-opacity:1;marker-end:url(#Arrow4-84-9)"
       d="M -90.880082,176.50451 V 161.91113"
       id="path396-1-1"
       sodipodi:nodetypes="cc" /><path
       style="fill:none;stroke:#000000;stroke-width:0.705556;stroke-dasharray:none;stroke-opacity:1;marker-end:url(#Arrow4-7)"
       d="m -114.59986,124.54498 h 94.128364"
       id="path396-11"
       sodipodi:nodetypes="cc" /><path
       style="fill:none;stroke:#000000;stroke-width:0.705556;stroke-dasharray:none;stroke-opacity:1;marker-end:url(#Arrow4-84-4-0-65)"
       d="M -0.82938429,32.85568 V 26.05821"
       id="path396-1-2-8-3"
       sodipodi:nodetypes="cc" /><path
       style="fill:none;stroke:#000000;stroke-width:0.705556;stroke-dasharray:none;marker-end:url(#Arrow4)"
       d="m 15.75811,228.71924 -46.263509,-1e-5 -0.126585,-21.59669"
       id="path9909"
       sodipodi:nodetypes="ccc" /><path
       style="fill:none;stroke:#000000;stroke-width:0.705556;stroke-dasharray:none;marker-end:url(#Arrow4)"
       d="m -30.505402,228.71923 h -45.15455"
       id="path10581" /></g></svg>
